<svg xmlns="http://www.w3.org/2000/svg" width="194" height="89" fill="none" viewBox="0 0 194 89">
  <path fill="#F9FBFC" stroke="#000" stroke-miterlimit="10" stroke-width="3" d="M26.567 44.776c.24-1.83 1.93-13.18 12.19-20.08 8.53-5.73 19.75-6.23 29.27-1.39 1.95-2.36 6.57-7.32 14.29-10.11 9.29-3.35 17.34-1.5 20.21-.7 1.82-1.76 12.98-12.22 27.73-10.25 6.11.82 18.02 4.46 20.67 13.19.45 1.48.54 2.8.53 3.74.69-.13 15.82-2.81 25.84 8.55 8.39 9.52 6.51 21.29 6.24 22.81 1.33.48 5.95 2.32 7.66 6.77 1.85 4.82-.9 9.61-2.14 11.76-8.26 14.36-44.21 10.95-46.69 10.69-5.6 2.79-16.4 7.26-30.67 7.46-15 .22-26.39-4.38-32.07-7.14-3.57 2.19-14.42 8.2-29.12 6.86-12.46-1.14-21.02-6.95-24.48-9.59-4.81 3.58-11 4.32-15.96 1.83-6.29-3.15-7.57-9.98-7.79-11.18-1.47-7.86 3.34-13.87 4.39-15.19 7.03-8.75 18.6-8.13 19.89-8.04l.01.01Z"/>
  <path fill="#D6E1E5" d="M158.516 66.136a26.327 26.327 0 0 0 3.675-1.453 24.485 24.485 0 0 0 3.416-2.079c-3.695-5.912-14.163-5.145-20.116-3.571-.58.161-1.339-.303-1.259-.969 1.418-13.379-13.804-9-20.476-4.177-.839.605-1.858-.545-1.359-1.372 2.737-4.642 5.194-11.3 3.616-16.77-1.858-6.437-8.29-7.567-13.365-4.157-8.09 5.47-13.924 14.045-19.497 21.936-.46.645-1.259.625-1.718 0-3.656-4.944-8.73-10.393-14.683-12.39-8.67-2.907-12.086 4.742-13.465 12.148-.18 1.008-1.698.928-1.918 0-1.318-5.348-6.073-18.384-13.204-10.716-4.555 4.904-6.053 11.967-5.814 18.505.04.989-1.418 1.412-1.858.504-1.258-2.502-3.755-7.002-7.271-5.63-2.797 1.09-4.695 4.117-5.694 6.841a31.865 31.865 0 0 0-.919 3.067c2.178-.02 4.455-.504 6.693-1.513.24-.101.54-.121.799-.06a1.33 1.33 0 0 1 1.059.12c14.563 8.314 28.287 9.344 43.37 1.716.14-.06.679-.343 1.278-.162.72.202 1.079.949 1.139 1.05 2.677 4.863 25.031 4.701 25.031 4.701 14.703-.1 19.897-1.432 24.532-4.661.479-.343.879-.646 1.139-.848a52.27 52.27 0 0 0 13.564 1.796s7.212 0 13.345-1.876l-.04.02Z"/>
</svg>
