<svg xmlns="http://www.w3.org/2000/svg" width="282" height="124" fill="none" viewBox="0 0 282 124">
  <path fill="#F9FBFC" id="cloud-svg" class="cloud-svg" stroke="#000" stroke-linejoin="round" stroke-miterlimit="10" d="M165.856 18.588c6.758 3.425 13.976 8.765 16.5 12 3.5-1.5 18.298-5.073 30-.926 12.055 4.27 21.5 18.63 21.5 25.733 0 0 23.481-2.93 34.871 7.193 1.936 1.731 14.559 14.4 10.629 28.5-1.898 6.755-8.294 13.432-10.629 14.935-10.744 6.869-25.289-.459-26.371-.935-5.827 3.824-10.191 15.412-47.356 15.412-27 0-43.942-13.177-46.144-14.319-3.246 2.55-25.652 15.007-40.136 15.407-16.402.456-35.364-11.509-38.364-13.907-4.992 1.903-27.5 6-44.5 0-7.5-2.647-19.5-5-23.5-18-1.5-12 1.5-17 13.5-23.5-1-2.5-2.433-22.896 11.5-33 11.032-8 27.81-6.867 28-7 1.424-3.14 7.406-14.36 22.744-21 14.712-6.393 27.966-1.408 32.256 0 10.441 3.425 17.539 12.746 20.5 16 3.512-1.16 21-7.593 35-2.593Z"/>
  <path fill="#D6E1E5" d="M229.781 89.008a24.724 24.724 0 0 0 9.22 1.451c1.571-3.168 1.938-6.97.408-11.036-1.387-3.7-4.467-7.419-8.751-7.5-5.528-.103-9.873 3.78-13.382 7.643-.571.633-1.816.163-1.734-.715 1.387-15.88-20.297-5.825-27.029-1.165-.694.49-1.469-.184-1.53-.88-1.449-14.755-24.275-2.166-32.374-1.062-.53.082-1.122-.123-1.244-.715-3.407-14.633-17.789-8.972-24.806-.572-.49.592-1.55.265-1.714-.45-1.346-6.05-2.794-12.14-4.997-17.944-2.142-5.662-5.672-15.001-12.342-16.739-13.668-3.535-17.299 22.809-19.461 31.617-.245 1.043-1.653.9-1.959 0-2.04-5.906-7.466-20.029-15.646-12.364-5.1 4.762-8.22 11.445-11.036 17.719-.224.49-.98.654-1.387.368-3.713-2.555-10.037-6.56-14.626-3.618-3.51 2.269-4.468 6.95-4.386 10.853 0 .695.06 1.39.122 2.084 2.02.9 4.162 1.594 6.201 2.126 6.57 1.737 13.423 2.636 20.196 2.963 6.12.307 12.26-.593 18.339-.306.388-.287.918-.41 1.407-.143 10.465 5.313 20.359 9.564 32.354 9.32 12.138-.246 21.481-5.11 31.782-10.853.735-.409 1.489-.164 1.959.347 8.323 2.494 16.013 5.334 24.846 5.723 7.915.347 15.116-1.697 22.766-2.678.265-.45.755-.735 1.387-.572 5.059 1.329 9.771 2.657 15.075 2.085 3.876-.43 7.221-1.921 10.71-3.332-.225-.92.53-2.043 1.611-1.655h.021Z"/>
</svg>
