<svg xmlns="http://www.w3.org/2000/svg" width="95" height="59" fill="none" viewBox="0 0 95 59">
  <mask id="a" fill="#fff">
    <path d="M8.017 57.04c-.017.952-.487 1.47-2.505 1.47H4.285C1.478 58.51 0 56.92 0 53.897v-2.194c0-1.124.085-2.386.22-3.334.184-1.417.822-1.78 1.764-1.78H8v.796c0 .829-.487 1.244-1.546 1.244H2.503c-.117.864-.168 2.022-.168 2.766h4.438v.846c0 .778-.47 1.088-1.395 1.088H2.335v.69c0 2.058.655 2.454 2.437 2.454h.74c.84 0 1.697-.07 2.522-.26l-.017.828Zm6.235 1.59c-2.79 0-4.59-1.917-4.59-5.338v-6.705h.892c.723 0 1.429.535 1.429 2.177v4.372c0 2.213.723 3.284 2.505 3.284 1.63 0 2.303-1.106 2.303-3.196V46.59h.874c.874 0 1.446.656 1.446 2.108v4.387c-.003 3.474-1.566 5.546-4.86 5.546Zm14.823-.12c-.74 0-1.378-.293-1.68-1.054l-.856-2.142c-.521-1.297-1.008-1.382-1.615-1.487-.503-.085-.907-.155-1.141-.155v4.753h-.74c-1.025 0-1.563-.638-1.563-1.59v-9.918c.487-.19 2.1-.433 2.958-.433h1.278c2.286 0 3.78 1.417 3.78 3.404 0 1.607-1.024 2.938-2.368 3.146.62.26 1.142.968 1.429 1.66l.925 2.212c.285.69.572 1.018.706 1.226-.27.293-.472.378-1.113.378Zm-4.267-9.986c-.22 0-.774.052-1.025.12v3.129c.504.102 1.025.102 1.648.102.942 0 1.73-.553 1.73-1.607 0-1.434-.705-1.744-1.713-1.744h-.64ZM36.574 58.63c-2.907 0-5.261-2.403-5.261-5.944 0-3.682 2.015-6.307 5.511-6.307 2.79 0 5.262 2.195 5.262 5.944 0 3.597-2.002 6.307-5.512 6.307Zm.031-10.159c-1.697 0-2.923 1.435-2.923 3.852 0 2.85 1.007 4.25 3.108 4.25 1.782 0 2.924-1.314 2.924-3.922.003-2.78-1.159-4.18-3.109-4.18Zm11.934 5.754c-.805 0-1.463-.138-1.933-.398v4.595h-.908c-.638 0-1.395-.432-1.395-1.694v-9.676c.638-.242 2.17-.553 2.992-.553h1.295c2.235 0 3.832 1.314 3.832 3.682 0 2.508-1.68 4.044-3.883 4.044Zm-.233-5.719h-.74c-.285 0-.69.103-.96.156v3.35c.404.121 1.042.208 1.631.208 1.176 0 1.816-.69 1.816-1.831 0-1.347-.537-1.883-1.747-1.883Zm11.057 10.022h-.89c-2.706 0-4.203-1.555-4.203-4.388v-7.55h.942c.942 0 1.43.552 1.43 1.726v5.666c0 1.797.403 2.453 2.134 2.453h.59c1.093 0 1.984-.26 2.403-.433v.811c0 1.041-.504 1.715-2.406 1.715Zm12.421-.103c-.96 0-1.463-.57-1.546-1.141a19.01 19.01 0 0 0-.319-1.882H65.33a47.544 47.544 0 0 0-.606 3.023h-.891c-.757 0-1.06-.416-1.06-1.141 0-1.71 2.153-8.675 3.918-10.695h.942c.925 0 1.546.518 1.865 1.089 1.042 1.917 2.773 7.015 3.226 10.747h-.94Zm-4.168-9.66c-.672 1.225-1.395 3.11-1.782 4.752h3.564c-.387-1.66-1.176-3.647-1.782-4.753Zm15.262 9.66c-.891 0-1.865-.275-3.294-3.129l-2.1-4.2c-.32-.655-.573-1.105-.775-1.38v8.706h-.908c-.672 0-1.395-.518-1.395-1.554V46.587h1.142c1.512 0 2.488.828 3.26 2.417l2.015 4.148c.237.483.504 1.191.672 1.589v-8.154h1.025c.59 0 1.261.606 1.261 1.364v10.471h-.903v.003Zm10.252-9.763h-2.118v9.763h-.925c-.806 0-1.395-.536-1.395-1.59v-8.173H85.38v-.779c0-.57.453-1.296 1.395-1.296h7.732v.743c0 .57-.62 1.332-1.378 1.332Z"/>
  </mask>
  <path fill="#fff" stroke="#fff" stroke-width="4" d="M8.017 57.04c-.017.952-.487 1.47-2.505 1.47H4.285C1.478 58.51 0 56.92 0 53.897v-2.194c0-1.124.085-2.386.22-3.334.184-1.417.822-1.78 1.764-1.78H8v.796c0 .829-.487 1.244-1.546 1.244H2.503c-.117.864-.168 2.022-.168 2.766h4.438v.846c0 .778-.47 1.088-1.395 1.088H2.335v.69c0 2.058.655 2.454 2.437 2.454h.74c.84 0 1.697-.07 2.522-.26l-.017.828Zm6.235 1.59c-2.79 0-4.59-1.917-4.59-5.338v-6.705h.892c.723 0 1.429.535 1.429 2.177v4.372c0 2.213.723 3.284 2.505 3.284 1.63 0 2.303-1.106 2.303-3.196V46.59h.874c.874 0 1.446.656 1.446 2.108v4.387c-.003 3.474-1.566 5.546-4.86 5.546Zm14.823-.12c-.74 0-1.378-.293-1.68-1.054l-.856-2.142c-.521-1.297-1.008-1.382-1.615-1.487-.503-.085-.907-.155-1.141-.155v4.753h-.74c-1.025 0-1.563-.638-1.563-1.59v-9.918c.487-.19 2.1-.433 2.958-.433h1.278c2.286 0 3.78 1.417 3.78 3.404 0 1.607-1.024 2.938-2.368 3.146.62.26 1.142.968 1.429 1.66l.925 2.212c.285.69.572 1.018.706 1.226-.27.293-.472.378-1.113.378Zm-4.267-9.986c-.22 0-.774.052-1.025.12v3.129c.504.102 1.025.102 1.648.102.942 0 1.73-.553 1.73-1.607 0-1.434-.705-1.744-1.713-1.744h-.64ZM36.574 58.63c-2.907 0-5.261-2.403-5.261-5.944 0-3.682 2.015-6.307 5.511-6.307 2.79 0 5.262 2.195 5.262 5.944 0 3.597-2.002 6.307-5.512 6.307Zm.031-10.159c-1.697 0-2.923 1.435-2.923 3.852 0 2.85 1.007 4.25 3.108 4.25 1.782 0 2.924-1.314 2.924-3.922.003-2.78-1.159-4.18-3.109-4.18Zm11.934 5.754c-.805 0-1.463-.138-1.933-.398v4.595h-.908c-.638 0-1.395-.432-1.395-1.694v-9.676c.638-.242 2.17-.553 2.992-.553h1.295c2.235 0 3.832 1.314 3.832 3.682 0 2.508-1.68 4.044-3.883 4.044Zm-.233-5.719h-.74c-.285 0-.69.103-.96.156v3.35c.404.121 1.042.208 1.631.208 1.176 0 1.816-.69 1.816-1.831 0-1.347-.537-1.883-1.747-1.883Zm11.057 10.022h-.89c-2.706 0-4.203-1.555-4.203-4.388v-7.55h.942c.942 0 1.43.552 1.43 1.726v5.666c0 1.797.403 2.453 2.134 2.453h.59c1.093 0 1.984-.26 2.403-.433v.811c0 1.041-.504 1.715-2.406 1.715Zm12.421-.103c-.96 0-1.463-.57-1.546-1.141a19.01 19.01 0 0 0-.319-1.882H65.33a47.544 47.544 0 0 0-.606 3.023h-.891c-.757 0-1.06-.416-1.06-1.141 0-1.71 2.153-8.675 3.918-10.695h.942c.925 0 1.546.518 1.865 1.089 1.042 1.917 2.773 7.015 3.226 10.747h-.94Zm-4.168-9.66c-.672 1.225-1.395 3.11-1.782 4.752h3.564c-.387-1.66-1.176-3.647-1.782-4.753Zm15.262 9.66c-.891 0-1.865-.275-3.294-3.129l-2.1-4.2c-.32-.655-.573-1.105-.775-1.38v8.706h-.908c-.672 0-1.395-.518-1.395-1.554V46.587h1.142c1.512 0 2.488.828 3.26 2.417l2.015 4.148c.237.483.504 1.191.672 1.589v-8.154h1.025c.59 0 1.261.606 1.261 1.364v10.471h-.903v.003Zm10.252-9.763h-2.118v9.763h-.925c-.806 0-1.395-.536-1.395-1.59v-8.173H85.38v-.779c0-.57.453-1.296 1.395-1.296h7.732v.743c0 .57-.62 1.332-1.378 1.332Z" mask="url(#a)"/>
  <path fill="#fff" stroke="#fff" stroke-width="2" d="M39.209 3.037a25.978 25.978 0 0 1 7.175 5.316c-2.02.012-3.941.514-5.714 1.504-4.282 2.39-7.53 7.438-9.803 14.693a61.06 61.06 0 0 0-1.704 6.877 13.15 13.15 0 0 1-.081-.69c-.117-1.277-.104-2.868.01-4.606.228-3.474.85-7.42 1.554-10.381 1.541-6.49 3.439-10.432 5.653-12.367h.001c.126-.111.273-.214.432-.304a2.648 2.648 0 0 1 2.477-.042Zm-3.685 35.517.004.002c.141.083.3.154.466.21 2.742.907 7.04.584 13.332-1.256 2.873-.84 6.546-2.22 9.622-3.702 1.539-.74 2.903-1.495 3.934-2.205.119-.082.232-.163.34-.242a61.1 61.1 0 0 1-6.492 1.82c-7.306 1.6-13.204 1.334-17.347-1.072l-3.859 6.445Zm0 0a2.467 2.467 0 0 1-1.233-1.995m1.233 1.995-1.233-1.995m0 0a24.277 24.277 0 0 1 1.004-8.46m-1.004 8.46 1.004-8.46m0 0a11.363 11.363 0 0 0 4.087 4.01l-4.087-4.01Zm30.761-3.992-.002.001a26.141 26.141 0 0 1-8.22 3.513 11.5 11.5 0 0 0 1.546-5.64c.064-4.867-2.704-10.16-7.875-15.712a61.168 61.168 0 0 0-5.082-4.838c.192.076.394.163.605.26 1.17.533 2.547 1.335 4 2.296 2.908 1.92 6.027 4.415 8.251 6.489 4.871 4.544 7.35 8.128 7.923 10.982v.001c.036.174.052.349.05.522a2.575 2.575 0 0 1-1.196 2.126Zm-19.168-.551a9.509 9.509 0 0 1-.262-.448m.262.448a10.714 10.714 0 0 0-.369-.037l.028-.345.08-.066m.26.448c.331.532.85 1.248 1.542 1.8.723.579 1.596.956 2.675.771m-4.216-2.571c.709.083 1.634.268 2.459.693.759.391 1.412.97 1.757 1.878m-4.478-3.019a1.165 1.165 0 0 0-.064-.106l.037-.48m.027.586.288.023.005-.002a.849.849 0 0 0 .452-.517 10.953 10.953 0 0 0-.772-.09m0 0c-.185-.014-.261-.229-.094-.304l.122-.055h.001l.64-.29-2.365-.898-.012.137c-.015.178-.246.183-.323.019m2.031 1.392-.038.478a1.115 1.115 0 0 0-1.134-.472m0 0a1.13 1.13 0 0 1 .042-.533m-.042.534a1.228 1.228 0 0 0-.538.26c.053-.152.088-.348.06-.558m.478.297a1.181 1.181 0 0 0 .654.87L43.9 21.896m1.569.1a1.133 1.133 0 0 0 .363-.527m-.363.528a1.133 1.133 0 0 1 .363-.527m-.363.527a1.14 1.14 0 0 1-.52.236m.883-.764c.082-.067.171-.12.262-.161m-.262.161a1.18 1.18 0 0 0 .056-.273l.448-5.155.428.441c.309.317.687.345.88.333a1.4 1.4 0 0 0 .44-.105l.017-.008.017-.008 1.715-.8-.177 1.826-.002.015-.001.016c-.007.104-.007.279.052.473.06.195.225.536.63.709l.51.218-4.751 2.157m0 0h-.002l.413.911-.408-.913-.003.002Zm-1.145.925a1.11 1.11 0 0 0-.79-.91l.41-.191m.38 1.101a1.19 1.19 0 0 1-1.05-.337m.67-.764a9.274 9.274 0 0 0-.023-.048v-.001c-.09-.191-.2-.41-.332-.644l-.725.763m1.08-.07-.41.19a1.172 1.172 0 0 0-.179-.038l-.017.13-.301.14a9.41 9.41 0 0 0-.173-.352m0 0c-.32-.619-.807-1.391-1.484-1.995-.637-.568-1.43-.98-2.447-.98.192 1.03.839 1.694 1.64 2.162.78.456 1.662.69 2.29.813Zm.357 1.073.052-.38-.925.22.058-.082.082-.12.474.322c.097.016.184.03.26.04Zm0 0 .054-.379m-.054.379c.072.01.15.063.094.2l-.04-.579m7.204 4.232a3.88 3.88 0 0 0 .713-.196l.29.77v.002l.062.164-.065-.164v-.001l-.304-.765a.82.82 0 0 0-.503.904m-.193-.714c.083.219.148.456.193.714m0 0 .001.007-.001-.007Zm-8.72-11.121Zm0 0a.045.045 0 0 1 .012-.011m-.012.01.012-.01m0 0a.027.027 0 0 1 .01-.004m-.01.004.01-.004m0 0a.02.02 0 0 1 .007 0m-.008 0h.008m0 0c.004 0 .008.002.01.004m-.01-.004.01.004m0 0-.018.026m.018-.026-.018.026m0 0-.02.03m.02-.03-.02.03m0 0-.01.014m.01-.014-.01.014m0 0-.002-.006a.073.073 0 0 1 .01-.053l-.009.06Zm-2.62 7.862h.002l.005.002a.035.035 0 0 1 .011.008.046.046 0 0 1 .012.018c.004.01.006.02.006.028a.074.074 0 0 1-.006.028.055.055 0 0 1-.012.018.036.036 0 0 1-.01.007.026.026 0 0 1-.009.002h-.002l-.005-.002a.032.032 0 0 1-.011-.007.054.054 0 0 1-.012-.018.073.073 0 0 1-.006-.028.07.07 0 0 1 .006-.028.054.054 0 0 1 .012-.018.034.034 0 0 1 .016-.01h.002Zm0 0Zm-1.124-5.348h.001-.001Zm3.763-2.482a.06.06 0 0 1-.02-.032l.01-.014.02-.03.019-.026a.06.06 0 0 1 .02.031l.001.007a.08.08 0 0 1 .001.017l-.001.012a.07.07 0 0 1-.01.024.044.044 0 0 1-.013.012.025.025 0 0 1-.009.004h-.008a.03.03 0 0 1-.01-.005Zm9.85 6.725a.047.047 0 0 1-.012.012.026.026 0 0 1-.009.004h-.007a.028.028 0 0 1-.01-.005.06.06 0 0 1-.02-.032l.01-.014.02-.03.018-.026a.06.06 0 0 1 .021.038.072.072 0 0 1 0 .03.07.07 0 0 1-.01.023Zm-.049-.035-.01.014v-.006a.072.072 0 0 1 0-.03.07.07 0 0 1 .01-.023.045.045 0 0 1 .012-.012.026.026 0 0 1 .01-.003.022.022 0 0 1 .007 0 .03.03 0 0 1 .01.004l-.018.026-.02.03Z"/>
</svg>
