<?xml version="1.0" encoding="UTF-8"?><svg xmlns="http://www.w3.org/2000/svg" viewBox="0 0 813.86 61.68"><defs><style>.d{fill:#d12e26;}</style></defs><g id="a"/><g id="b"><g id="c"><path class="d" d="M0,18c4.56-5.03,7.48-7.18,8.79-6.44,.48,.27,.73,.92,.78,1.96,.7-1.03,2.01-2.64,4.12-3.99,.93-.59,4.01-2.39,8.24-2.2,1.1,.05,3.75,.2,6.45,1.93,1.18,.75,2.02,1.58,2.57,2.2,1.02-.67,2.6-1.56,4.65-2.19,3.23-.99,5.93-.81,8.85-.58,2.44,.18,4.52,.34,7.12,1.21,5.52,1.84,7.06,4.79,10.43,4.13,1.19-.23,.92-.58,3.29-1.46,.71-.26,3.81-1.41,6.73-1.39,4.73,.03,8.33,3.12,9.65,4.39,2.87-.85,6.28-1.64,10.15-2.16,4.22-.56,8.01-.66,11.2-.55,.31-.17,.78-.38,1.39-.5,1.47-.3,2.69,.14,3.5,.43,1.71,.61,3.62,1.23,5.93,1.98,2.22-.65,5.43-1.26,9.15-.76,4.5,.61,5.26,2.26,9.86,2.73,4.69,.48,5.87-1.03,9.58-.15,3.18,.75,5.48,2.61,6.95,4.09,.9-.42,2.11-.95,3.58-1.46,.92-.32,3.57-1.24,6.31-1.62,6.31-.88,11.75,.74,11.75,.74,1.15,.34,3.75,1.22,5.25-.03,.18-.15,.31-.3,.39-.41l-.6-1.95c3.7-3.45,6.96-4.44,9.29-4.7,5.23-.57,7.02,2.48,12.91,1.94,4.49-.41,5.21-2.35,9.68-3.01,4.96-.73,9.29,.87,12.12,2.3,.67-.49,1.66-1.09,2.94-1.51,1.84-.59,3.52-.55,3.51-.57,0-.02-1.27-.03-1.3,.16-.04,.35,4.04,.5,8.09,2.85,1.13,.66,1.99,1.32,2.55,1.8,.87-.86,2.16-2.03,3.85-3.23,3.21-2.26,5.07-3.57,7.69-3.81,5.07-.47,10.17,3.32,10.94,3.9,.47,.35,1.79,1.38,3.39,1.21,.86-.09,1.53-.5,1.95-.81,9.19-.48,13.6-.04,15.88,.58,.52,.14,2.78,.79,3.53-.16,.43-.54,.07-1.18,.25-1.84,.56-2.05,7.36-1.64,7.36-1.64,3.28,.2,8.2,.9,14.25,3.31,.56-.36,1.38-.86,2.39-1.37,4.05-2.03,7.56-2.41,8.89-2.51,2.42-.18,3.9-.29,5.58,.57,1.74,.89,2.71,2.33,3.19,3.19,3.12-.81,7-1.56,11.5-1.83,4.99-.3,9.32,.07,12.75,.61,8.43-2.86,15.8-4.16,21.3-4.79,5.29-.61,15.18-1.67,27.69,.66,6.35,1.18,11.51,2.89,15.14,4.29,2.51-1.54,6.35-3.48,11.27-4.29,7.51-1.24,9.53,1.46,19.63,2.1,11.29,.72,14.03-2.31,21.59,.1,5.05,1.61,8.68,4.51,10.94,6.69,.53,.25,1.15,.19,1.6-.15,.51-.39,.73-1.06,.54-1.7,2.6-.62,5.35-1.18,8.23-1.67,6.14-1.04,11.86-1.56,17.04-1.74,2.75,2.25,6.32,2.93,9.29,1.69,2.31-.96,3.54-2.79,4.01-3.6,2.57-.85,6.16-2,10.48-3.3,3.56-1.07,6.36-1.91,9.58-2.74,7.84-2.01,11.75-3.01,14.76-2.89,7.11,.29,12.89,3.75,17.11,6.24,2.07,1.22,3.7,2.38,4.8,3.2-.17,.35-.11,.77,.14,1.03,.31,.31,.84,.34,1.22,.03,.61-.38,1.25-.73,1.92-1.06,7.26-3.59,14.92-2.7,19.94-1.48,.71-.75,1.83-1.77,3.43-2.63,.85-.46,4.62-2.37,8.68-1.49,4.44,.97,4.16,4.16,8.57,5.42,4.13,1.18,5.02-1.48,9.33-.44,4.92,1.18,5.14,4.89,10.21,5.71,3.12,.5,3.17-.88,6.59-.22,4.02,.78,6.44,2.87,8.01,1.76,.63-.45,.85-1.24,.94-1.82,4,.15,8.7,.31,13.97,.45,5.21,.14,6.28,.15,7.92-.39,5.29-1.73,6.07-5.63,9.88-6.26,1.91-.31,4.93,.14,9.27,4.43,.23-.85,.72-2.23,1.85-3.55,2.19-2.57,5.2-3.07,6.01-3.19,3.63-.55,4.52,1.32,8.78,1.43,3.79,.1,3.86-1.36,7.14-1.43,6.68-.14,8.41,5.87,13.17,4.92,3.2-.64,3.41-3.56,8.92-5.33,1.38-.44,2.57-.83,4.16-.8,4.89,.08,6.1,3.93,10.65,5.16,4.25,1.15,5.68-1.54,11.48-1.85,3.03-.16,7.52,.31,13.19,3.6,4.49-2.33,7.36-2.1,9.19-1.4,3.6,1.38,4.15,4.97,8.79,7.99,2.58,1.68,5.15,2.36,6.96,2.67,.26,.61,1.29,2.86,3.87,4.18,2.44,1.24,4.71,.87,5.39,.74-.01,4.88-.02,9.76-.02,14.65,0,7.15,0,14.28,.02,21.39-271.28,0-542.57,0-813.85-.01,0-14.56,0-29.12,0-43.67Z"/></g></g></svg>