<svg xmlns="http://www.w3.org/2000/svg" width="244" height="63" fill="none" viewBox="0 0 244 63">
  <mask id="a" width="245" height="50" x="-.794" y="-.206" fill="#000" maskUnits="userSpaceOnUse">
    <path fill="#fff" d="M-.794-.206h245v50h-245z"/>
    <path d="M5.523 34.257a8.928 8.928 0 0 1-.67-1.471c-.317-1.046-.757-2.762-.974-3.408-.35-1.113-.7-2.227-1.06-3.34-.566-1.828-.974-3.221-1.24-4.232l-.373-1.453c.009-.085.026-.161.035-.246-.008-.043-.04-.552.003-.611.21-.94 2.064-1.847 5.556-2.7l.093-.026c2.056-.497 2.728-.655 3.634 1.047.116.501.24 1.003.357 1.504.174.747.388 1.869.617 3.448.263 1.529.485 2.684.668 3.44.985-.232 2.001-1.355 2.98-3.394 1.02-2.048 1.676-3.826 1.912-5.224.175-.78.266-1.967.267-2.196.114-.627.65-.938 2.52-1.335.45-.1.9-.19 1.341-.29.145-.033.527-.115 1.257-.222.73-.106 1.164-.197 1.316-.179l.297-.015a.704.704 0 0 0 .297-.015c.204 0 1.374.092 1.417.084.356.019.583.393.732 1.15.289 1.426-.087 3.308-1.092 5.601-.163.262-.317.533-.48.795-1.488 2.113-2.463 3.49-2.898 3.997-.35.43-.701.861-1.043 1.292-.188.27-2.457 2.405-2.178 2.576l.033.136c.975.2 2.032.8 3.215 1.757 1.47 1.17 2.34 1.863 2.525 2.059 1.931 2.047 3.56 5.051 4.904 9.038l.05.22c.05.222.04.408-.003.467-.996.665-2.569 1.233-4.778 1.713l-1.486.322c-.408.092-.62-.003-.618-.232-.961-2.627-2.054-4.517-3.328-5.678-.06-.034-.068-.077-.033-.136-1.386-1.034-2.36-1.464-2.86-1.348l-.136.033c.015.196.031.4.039.594.306 1.3.604 2.592.911 3.891-.018.145.098.629.238 1.436.132.764.248 1.248.272 1.384.173.943-.068 1.552-.638 1.922-.723.361-2.05.761-3.927 1.226-.136.033-.493.124-1.13.23-.373.092-.747.183-1.121.283-.365.049-.661-.165-.897-.523-.235-.366-.578-1.165-.678-1.564l-.21-.273a2.135 2.135 0 0 1-.21-.46c-.093-.161-.325-1.087-.332-1.316a3259.167 3259.167 0 0 0-3.11-9.75l.017-.008Zm25.882 6.67c-.09-.68-.167-2.004-.283-3.973.014-2.494.053-4.98.093-7.474.042-.008.087-.296.078-.339.02-.526.049-1.06.077-1.586.064-.89.059-1.442.077-1.586.034-.085.069-.17.095-.254.025-1.62.208-3.927.683-6.835-.025-.136.01-.186.111-.203.513-3.747 1.24-6.288 2.13-7.65.556-.793 1.653-1.322 3.258-1.601 1.988-.354 3.918.429 5.452 2.202 1.526 1.731 2.3 2.847 3.342 4.745a31.107 31.107 0 0 1 1.15 2.297c.05 0 .05.034.117.12l.06.085c.343.723.687 1.454 1.022 2.186-.001.28.508 1.716.684 2.192a53.616 53.616 0 0 0 1.043 3.01l.025.136c1.017 3.246 2.017 6.493 3.017 9.74.114.73.22 1.469.335 2.2.025.135-.664.513-2.025 1.048-1.352.578-2.185.904-2.406.937l-.136.025c-.858.14-1.468.102-1.739-.086-.684-.488-1.155-1.33-1.403-2.528-.3-.842-.601-1.683-.893-2.517-.543-1.521-.827-2.346-.86-2.524-.521-.835-.465-1.903-1.764-1.681l-.093.016c-1.19.299-1.92.473-2.15.514-.187.033-.314.1-.391.21-.416.074-.824.19-1.173.392-.79.14-.297 1.483-.231 1.84.057.314-.054.475.047.772-.002.23.037.968.021 2.164.028 1.196.058 1.833.074 1.926.051 1.562-.557 2.551-1.79 2.968-.569.107-1.146.223-1.715.33-.544.107-1.172.231-1.64.27-.628.125-1.264.02-1.949-.35-.16-.102-.278-.222-.287-.264-.04-.22.055-.662-.037-.874h-.026Zm11.135-15.71c-.045-1.095-.125-1.868-.208-2.318-.049-.28-.098-.569-.148-.85-.402-2.326-1.262-3.374-2.595-3.144-.9.156-1.246 1.24-1.079 3.235l.041.22c-.007 1.341.005 2.172.055 2.436.024.136.049.272.074.399.03.687.105.857.22 1.486.091.493.352.859.862.768 1.91-.337 2.84-1.095 2.787-2.24l-.009.008Zm14.75 8.482a4590.104 4590.104 0 0 0-3.493-18.813c-.25-.74-.516-1.852-.779-3.33s-.504-2.446-.636-2.981c.111-.246 1.106-.58 3.068-1.035.204.018 1.554-.212 1.741-.288.195-.024 1.955-.54 2.243-.623.926-.122 1.852-.244 2.777-.358a65.822 65.822 0 0 1 2.768-.383l.976-.071a17.13 17.13 0 0 0 1.273-.103c1.12-.087 1.96-.083 2.453-.097A8.745 8.745 0 0 1 73.637 6.7l1.447.72c.211.12.481.41.775.879.49.452.92.913 1.198 1.296.234.604.477 1.2.711 1.803.687 1.624.986 2.78 1.063 4.095.181 2.496-1.765 4.631-4.34 5.49-1.09.419-2.169.837-3.249 1.264l.024.229c1.034.294 2.37 1.201 3.982 2.635 2.574 2.475 4.294 5.87 4.47 9.189 0 .042.016.178-.002.415l-.019.323-.154.287c-.12.152-1.08.283-2.913.476-.186.016-.637.107-1.316.23-.68.115-1.223.222-1.588.263h-.043c-.433-1.454-1.264-3.053-2.484-4.791-1.178-1.738-2.394-2.881-3.545-3.38-.397-.18-1.751-.79-2.26-.734h-.043l-.128.11c.016.136.087 1.086.103 1.222.104 1.222.21 2.038.3 2.437.067.178.135.306.134.348.244.477.347 1.648.532 2.04.079 1.027.167 2.054.246 3.08.03.637-.193 1.077-.678 1.278-1.257.298-2.802.493-4.678.661a23.81 23.81 0 0 1-2.106.2c-.042 0-.432-.12-.44-.163l-.152-.069c-.398-1.606-.805-3.22-1.203-4.826l.008-.008Zm5.32-15.429c.267.969.618 1.794 1.85 1.64 3.386-.194 5.673-1.08 5.582-4.542-.127-1.588-.775-2.567-1.986-2.973-1.973-.638-3.567-.902-4.823-.79-.365.049-.738.089-1.104.138-.237.032-.365.184-.325.499.025.178.045 1.137.07 1.273-.019.229.038.679.111 1.264.025.179.09.722.254 1.614.157.85.23 1.393.246 1.529.016.135.126.212.142.348h-.017Zm25.812 16.29c-.316-1.07-.57-2.6-.72-4.543-.13-1.036-.305-3.26-.574-6.74-.269-3.488-.451-5.746-.488-6.798-.164-.9-.287-1.8-.358-2.751-.04-.501-.217-2.123-.853-2.211-.45.031-.9.071-1.35.111-.72.056-2.394.335-3.115.407-.289.024-.578.048-.866.08a.745.745 0 0 1-.406-.24c-.158-.629-.307-1.249-.465-1.87-.08-.814-.117-1.815-.127-2.995-.024-.229.054-2.104.08-2.29a.547.547 0 0 1-.235-.392c-.016-.136.035-.186.171-.245.934-.164 1.877-.32 2.811-.476 1.41-.255 2.53-.393 3.312-.457 1.324-.103 2.85-.035 4.682.205.78-.055 1.562-.11 2.342-.157 1.86-.117 2.98-.23 3.37-.346 1.987-.116 3.981-.215 5.967-.306.636-.03 2.084.546 2.106 1.09l.225 5.354c.023.501-.922 1.081-1.441 1.248-.714.259-1.623.44-2.633.537-1.97.235-3.42.133-5.339.386l.56 9.157c.295 1.758.498 3.516.606 5.332.039.637.059 1.68.093 3.131.043 1.409.062 2.546.16 3.36a2.896 2.896 0 0 1-.696 1.405c-.691.769-1.142.936-2.434 1.43-.136.058-.273.108-.4.167-.315.108-.68.182-1.045.206-.73.055-1.662-.154-2.813-.66l-.152-.129h.025Zm17.124-22.998c.941-2.99 2.421-5.179 4.38-6.509.809-.521 2.017-1.1 3.718-1.727 1.7-.626 2.966-.916 3.899-.928 3.674-.047 6.572.724 8.76 2.323 1.309 1.008 2.471 2.601 3.367 4.795.947 2.144 1.394 4.106 1.367 5.786a30.201 30.201 0 0 1-1.38 8.612c-.536 1.855-.873 2.897-.968 3.126-.189.5-1.18 1.715-1.362 2.308-.512.634-1.024 1.132-1.535 1.443-1.158.765-2.723 1.401-4.693 1.823-1.19.324-1.972.515-2.337.521-1.671.016-3.334.05-5.006.083-.372-.215-1.024-.43-1.905-.639-.881-.2-1.482-.458-1.863-.723-3.525-2.251-5.421-6.165-5.66-11.842-.113-2.63.293-5.47 1.235-8.46l-.017.008Zm11.19 13.782c1.918-.032 3.354-.541 4.285-1.597.649-.683 1.206-1.775 1.673-3.282.466-1.5.703-2.77.7-3.814.002-.323.04-1.18.043-1.587.002-.407-.096-1.086-.289-1.495-1.199-2.45-2.618-3.671-4.306-3.647-2.071.023-3.848.785-5.206 2.313-1.357 1.486-1.978 3.23-1.93 5.224.086 2.91 1.296 7.957 5.021 7.893l.009-.008Zm17.21-12.91c.013-.866.089-2.274.177-4.31.087-2.044.164-3.587.136-4.716.259-.813 1.348-1.29 3.359-1.373.637-.03 1.477-.093 2.606-.104l2.707-.137h.195c1.323.06 2.01.13 2.052.182 1.221.185 2.145.368 2.873.542.246.06.915.32 2.024.741 2.116.886 2.673 1.373 2.561 3.23-.038.679-.238 1.628-.551 2.924-.313 1.305-.647 2.007-.996 2.217-.299.21-.987.36-2.048.439-1.315-.025-2.63-.04-3.945-.048-1.781-.078-3.172-.077-4.14.02a949.01 949.01 0 0 1-.162 4.767c1.73.06 3.452.13 5.182.207.806.038 1.22.371 1.191.965-.106 2.316-.431 4.206-.922 5.688-.061.271-.257.397-.58.379-1.17-.05-2.341-.098-3.511-.147-.374-.01-.756.106-1.182.366l-.019.45c-.031.95.063 2.316.274 4.142.219 1.783.304 3.15.274 4.006-.021.679-.134 1.221-.382 1.618-.416-.01-.823-.03-1.239-.04-.687-.021-2.103-.207-2.926-.229-1.051-.074-1.738-.222-2.05-.555-.27-.281-.486-.961-.641-2.056-.352-5.322-.461-11.686-.317-19.177v.009Zm21.207 6.702c.079-.491.032-1.23-.056-2.138-.088-.917-.093-1.596-.056-2.096.14-2.316.507-5.75 1.033-10.311.029-.5.488-.787 1.277-.782.399-.023.739-.038.985-.029.585-.005 1.806.13 1.857.13.246.018.729.097 1.119.125l.246.018c.441.036 1.119.176 2.034.385.967.209 1.491.44 1.575.585.135.145.201.52.206 1.062-.138.491-.382 1.652-.681 3.585-.142.958-.283 1.925-.432 2.883-.133 1.034-.318 2.161-.511 3.373l-.373 2.84c-.608 4.053-.916 6.079-.916 6.121-.073.908-.008 1.366.17 1.427l.653.054.653.055c.127 0 .255-.007.373-.015.238-.024.374-.015.425-.006 1.026.09 2.603.32 4.679.739.355.214.532.367.574.419.022.73-.035 1.824-.179 3.316-.01.136-.045.45-.142.992-.027.314-.063.636-.09.95-.072.72-.252 1.16-.686 1.345-.187.041-.382.082-.569.132-.238.024-1.247-.066-1.57-.051-2.46.054-5.361-.055-8.661-.294-.135-.01-1.187-.134-1.331-.144-.229.033-.509-.036-.813-.284-.219-.197-.402-.893-.599-2.133-.145-1.24-.183-2.105-.113-2.512-.024-3.25-.048-6.5-.081-9.74Zm16.801 14.925c.114-.67.436-1.966.913-3.88.76-2.372 1.528-4.743 2.297-7.115.05 0 .171-.253.171-.304l.543-1.499c.327-.83.483-1.363.543-1.49l.162-.211c.501-1.542 1.361-3.692 2.674-6.332.018-.135.069-.177.162-.16 1.606-3.427 3.044-5.642 4.305-6.678.767-.598 1.973-.77 3.584-.566 2.001.258 3.614 1.573 4.552 3.717.947 2.1 1.356 3.4 1.785 5.524.231 1.13.354 1.98.418 2.54.051 0 .043.05.076.144l.033.094c.115.798.221 1.596.335 2.386-.086.262-.019 1.79.004 2.299.01 1.239.046 2.3.109 3.182a.787.787 0 0 1-.017.136c.006 3.402.004 6.796-.006 10.19-.115.729-.221 1.466-.335 2.195-.018.136-.791.293-2.251.403-1.468.153-2.351.216-2.58.181l-.136-.018c-.864-.123-1.44-.339-1.634-.594-.514-.665-.712-1.608-.595-2.829l-.112-2.673c-.068-1.613-.097-2.487-.07-2.665-.249-.951.121-1.959-1.184-2.127h-.094a64.482 64.482 0 0 1-2.205-.158c-.186-.026-.331-.001-.433.083-.415-.053-.848-.056-1.23.036-.789-.098-.729 1.327-.774 1.692-.035.314-.197.432-.182.754-.069.22-.251.932-.622 2.075-.321 1.152-.494 1.77-.503 1.864-.416 1.508-1.285 2.267-2.592 2.302-.577-.063-1.162-.134-1.738-.197-.551-.062-1.187-.125-1.645-.221-.644-.072-1.211-.355-1.76-.918-.126-.153-.202-.298-.193-.34.027-.229.25-.61.225-.847v.025Zm15.278-11.7c.286-1.058.435-1.82.488-2.27.036-.288.071-.568.115-.856.31-2.34-.209-3.599-1.548-3.776-.907-.115-1.557.814-1.993 2.772l-.026.228c-.398 1.28-.64 2.076-.675 2.338a56.6 56.6 0 0 0-.053.407c-.182.661-.158.848-.229 1.484-.062.5.079.925.597.987 1.924.24 3.038-.203 3.324-1.313Zm11.694 16.212c-.424.023-.22-.086-.525-.223-.042 0-.584-.14-.635-.148-.432-.206-.52-1.182-.229-3.022.176-1.119.524-2.771 1.003-4.856.469-2.084.756-3.279.809-3.601l.044-.271c.633-2.508 1.275-5.008 1.917-7.515.143-1.221.473-2.687.758-3.509.181-.618.363-1.228.536-1.846.19-.585.38-1.169.578-1.745.336-.863.069-1.645 1.148-1.885.399-.015.797-.021 1.196-.036.654-.03 1.044-.011 1.154-.036a3.31 3.31 0 0 1 .789.038c1.662.281 3.323.57 4.984.868 1.695.307 3.574 1.25 5.558 2.882 1.867 1.47 2.918 3.164 3.394 4.507.217.646.348 1.462.283 2.513a19.998 19.998 0 0 1-.167 2.52c-.088.678-.289 1.652-.559 2.991l-.105.534-.524 2.585c-1.196 4.439-3.325 7.38-6.362 8.873-.383.252-.953.512-1.692.694-.145.017-.51.184-1.174.47-.672.292-1.173.476-1.581.627-.757.275-1.989.608-2.718.476a534.864 534.864 0 0 0-5.323-.92c-.847-.327-1.702-.655-2.557-.973v.008Zm7.197-4.957c-.017.093.025.145.118.162h.042c2.026.368 3.831-.64 4.908-2.06.555-.683 1.009-1.563 1.448-2.638.92-2.09 1.242-3.514 1.565-5.252.297-1.56.212-2.96-.23-4.294-.392-1.318-1.338-2.095-2.821-2.366l-.093-.018c-.4.295-.813 1.243-1.34 2.852-.484 1.618-1.445 5.142-2.825 10.573a10.734 10.734 0 0 0-.632 2.244c-.044.272-.096.534-.14.806v-.009Zm12.777 7.657c.182-.661.63-1.914 1.302-3.769a978.85 978.85 0 0 1 3.017-6.838c.051.009.196-.236.205-.279.232-.474.463-.956.687-1.43.411-.795.618-1.312.695-1.43l.188-.194c.661-1.49 1.733-3.537 3.308-6.022.026-.136.086-.17.179-.143 1.944-3.248 3.61-5.3 4.973-6.209.826-.513 2.048-.565 3.632-.191 1.975.46 3.46 1.936 4.177 4.163.734 2.185 1.007 3.518 1.224 5.675.112 1.154.15 2.003.163 2.571.051.01.034.052.059.154l.025.102.088 2.41c-.112.253-.196 1.78-.225 2.28a54.224 54.224 0 0 0-.213 3.181l-.034.136a1348.64 1348.64 0 0 1-1.033 10.141c-.182.72-.364 1.44-.555 2.152-.035.136-.824.208-2.292.165-1.476 0-2.375-.03-2.595-.082l-.136-.035c-.856-.208-1.406-.483-1.574-.755-.445-.715-.55-1.675-.306-2.878.056-.89.103-1.781.159-2.672.094-1.611.158-2.485.202-2.663-.156-.968.316-1.932-.972-2.237l-.093-.017c-1.212-.194-1.958-.316-2.196-.369-.186-.043-.33-.027-.441.04-.415-.095-.839-.14-1.238-.092-.78-.174-.864 1.251-.943 1.607-.069.314-.239.415-.258.737-.095.212-.345.897-.834 1.998-.439 1.109-.672 1.71-.689 1.803-.56 1.456-1.514 2.13-2.82 2.029-.576-.122-1.144-.244-1.72-.375-.542-.113-1.178-.252-1.618-.39-.636-.131-1.177-.474-1.666-1.087-.109-.162-.168-.315-.159-.358.044-.22.309-.583.31-.82l.017-.01Zm16.448-10.08c.388-1.025.613-1.77.717-2.211.069-.28.13-.56.2-.84.547-2.295.156-3.604-1.166-3.909-.898-.208-1.641.645-2.271 2.55l-.052.22c-.525 1.228-.852 1.998-.912 2.26-.027.136-.061.263-.087.399-.242.643-.243.83-.382 1.449-.113.482-.014.924.495 1.046 1.898.435 3.054.102 3.458-.965Z"/>
  </mask>
  <path fill="#2E3192" d="M5.523 34.257a8.928 8.928 0 0 1-.67-1.471c-.317-1.046-.757-2.762-.974-3.408-.35-1.113-.7-2.227-1.06-3.34-.566-1.828-.974-3.221-1.24-4.232l-.373-1.453c.009-.085.026-.161.035-.246-.008-.043-.04-.552.003-.611.21-.94 2.064-1.847 5.556-2.7l.093-.026c2.056-.497 2.728-.655 3.634 1.047.116.501.24 1.003.357 1.504.174.747.388 1.869.617 3.448.263 1.529.485 2.684.668 3.44.985-.232 2.001-1.355 2.98-3.394 1.02-2.048 1.676-3.826 1.912-5.224.175-.78.266-1.967.267-2.196.114-.627.65-.938 2.52-1.335.45-.1.9-.19 1.341-.29.145-.033.527-.115 1.257-.222.73-.106 1.164-.197 1.316-.179l.297-.015a.704.704 0 0 0 .297-.015c.204 0 1.374.092 1.417.084.356.019.583.393.732 1.15.289 1.426-.087 3.308-1.092 5.601-.163.262-.317.533-.48.795-1.488 2.113-2.463 3.49-2.898 3.997-.35.43-.701.861-1.043 1.292-.188.27-2.457 2.405-2.178 2.576l.033.136c.975.2 2.032.8 3.215 1.757 1.47 1.17 2.34 1.863 2.525 2.059 1.931 2.047 3.56 5.051 4.904 9.038l.05.22c.05.222.04.408-.003.467-.996.665-2.569 1.233-4.778 1.713l-1.486.322c-.408.092-.62-.003-.618-.232-.961-2.627-2.054-4.517-3.328-5.678-.06-.034-.068-.077-.033-.136-1.386-1.034-2.36-1.464-2.86-1.348l-.136.033c.015.196.031.4.039.594.306 1.3.604 2.592.911 3.891-.018.145.098.629.238 1.436.132.764.248 1.248.272 1.384.173.943-.068 1.552-.638 1.922-.723.361-2.05.761-3.927 1.226-.136.033-.493.124-1.13.23-.373.092-.747.183-1.121.283-.365.049-.661-.165-.897-.523-.235-.366-.578-1.165-.678-1.564l-.21-.273a2.135 2.135 0 0 1-.21-.46c-.093-.161-.325-1.087-.332-1.316a3259.167 3259.167 0 0 0-3.11-9.75l.017-.008Zm25.882 6.67c-.09-.68-.167-2.004-.283-3.973.014-2.494.053-4.98.093-7.474.042-.008.087-.296.078-.339.02-.526.049-1.06.077-1.586.064-.89.059-1.442.077-1.586.034-.085.069-.17.095-.254.025-1.62.208-3.927.683-6.835-.025-.136.01-.186.111-.203.513-3.747 1.24-6.288 2.13-7.65.556-.793 1.653-1.322 3.258-1.601 1.988-.354 3.918.429 5.452 2.202 1.526 1.731 2.3 2.847 3.342 4.745a31.107 31.107 0 0 1 1.15 2.297c.05 0 .05.034.117.12l.06.085c.343.723.687 1.454 1.022 2.186-.001.28.508 1.716.684 2.192a53.616 53.616 0 0 0 1.043 3.01l.025.136c1.017 3.246 2.017 6.493 3.017 9.74.114.73.22 1.469.335 2.2.025.135-.664.513-2.025 1.048-1.352.578-2.185.904-2.406.937l-.136.025c-.858.14-1.468.102-1.739-.086-.684-.488-1.155-1.33-1.403-2.528-.3-.842-.601-1.683-.893-2.517-.543-1.521-.827-2.346-.86-2.524-.521-.835-.465-1.903-1.764-1.681l-.093.016c-1.19.299-1.92.473-2.15.514-.187.033-.314.1-.391.21-.416.074-.824.19-1.173.392-.79.14-.297 1.483-.231 1.84.057.314-.054.475.047.772-.002.23.037.968.021 2.164.028 1.196.058 1.833.074 1.926.051 1.562-.557 2.551-1.79 2.968-.569.107-1.146.223-1.715.33-.544.107-1.172.231-1.64.27-.628.125-1.264.02-1.949-.35-.16-.102-.278-.222-.287-.264-.04-.22.055-.662-.037-.874h-.026Zm11.135-15.71c-.045-1.095-.125-1.868-.208-2.318-.049-.28-.098-.569-.148-.85-.402-2.326-1.262-3.374-2.595-3.144-.9.156-1.246 1.24-1.079 3.235l.041.22c-.007 1.341.005 2.172.055 2.436.024.136.049.272.074.399.03.687.105.857.22 1.486.091.493.352.859.862.768 1.91-.337 2.84-1.095 2.787-2.24l-.009.008Zm14.75 8.482a4590.104 4590.104 0 0 0-3.493-18.813c-.25-.74-.516-1.852-.779-3.33s-.504-2.446-.636-2.981c.111-.246 1.106-.58 3.068-1.035.204.018 1.554-.212 1.741-.288.195-.024 1.955-.54 2.243-.623.926-.122 1.852-.244 2.777-.358a65.822 65.822 0 0 1 2.768-.383l.976-.071a17.13 17.13 0 0 0 1.273-.103c1.12-.087 1.96-.083 2.453-.097A8.745 8.745 0 0 1 73.637 6.7l1.447.72c.211.12.481.41.775.879.49.452.92.913 1.198 1.296.234.604.477 1.2.711 1.803.687 1.624.986 2.78 1.063 4.095.181 2.496-1.765 4.631-4.34 5.49-1.09.419-2.169.837-3.249 1.264l.024.229c1.034.294 2.37 1.201 3.982 2.635 2.574 2.475 4.294 5.87 4.47 9.189 0 .042.016.178-.002.415l-.019.323-.154.287c-.12.152-1.08.283-2.913.476-.186.016-.637.107-1.316.23-.68.115-1.223.222-1.588.263h-.043c-.433-1.454-1.264-3.053-2.484-4.791-1.178-1.738-2.394-2.881-3.545-3.38-.397-.18-1.751-.79-2.26-.734h-.043l-.128.11c.016.136.087 1.086.103 1.222.104 1.222.21 2.038.3 2.437.067.178.135.306.134.348.244.477.347 1.648.532 2.04.079 1.027.167 2.054.246 3.08.03.637-.193 1.077-.678 1.278-1.257.298-2.802.493-4.678.661a23.81 23.81 0 0 1-2.106.2c-.042 0-.432-.12-.44-.163l-.152-.069c-.398-1.606-.805-3.22-1.203-4.826l.008-.008Zm5.32-15.429c.267.969.618 1.794 1.85 1.64 3.386-.194 5.673-1.08 5.582-4.542-.127-1.588-.775-2.567-1.986-2.973-1.973-.638-3.567-.902-4.823-.79-.365.049-.738.089-1.104.138-.237.032-.365.184-.325.499.025.178.045 1.137.07 1.273-.019.229.038.679.111 1.264.025.179.09.722.254 1.614.157.85.23 1.393.246 1.529.016.135.126.212.142.348h-.017Zm25.812 16.29c-.316-1.07-.57-2.6-.72-4.543-.13-1.036-.305-3.26-.574-6.74-.269-3.488-.451-5.746-.488-6.798-.164-.9-.287-1.8-.358-2.751-.04-.501-.217-2.123-.853-2.211-.45.031-.9.071-1.35.111-.72.056-2.394.335-3.115.407-.289.024-.578.048-.866.08a.745.745 0 0 1-.406-.24c-.158-.629-.307-1.249-.465-1.87-.08-.814-.117-1.815-.127-2.995-.024-.229.054-2.104.08-2.29a.547.547 0 0 1-.235-.392c-.016-.136.035-.186.171-.245.934-.164 1.877-.32 2.811-.476 1.41-.255 2.53-.393 3.312-.457 1.324-.103 2.85-.035 4.682.205.78-.055 1.562-.11 2.342-.157 1.86-.117 2.98-.23 3.37-.346 1.987-.116 3.981-.215 5.967-.306.636-.03 2.084.546 2.106 1.09l.225 5.354c.023.501-.922 1.081-1.441 1.248-.714.259-1.623.44-2.633.537-1.97.235-3.42.133-5.339.386l.56 9.157c.295 1.758.498 3.516.606 5.332.039.637.059 1.68.093 3.131.043 1.409.062 2.546.16 3.36a2.896 2.896 0 0 1-.696 1.405c-.691.769-1.142.936-2.434 1.43-.136.058-.273.108-.4.167-.315.108-.68.182-1.045.206-.73.055-1.662-.154-2.813-.66l-.152-.129h.025Zm17.124-22.998c.941-2.99 2.421-5.179 4.38-6.509.809-.521 2.017-1.1 3.718-1.727 1.7-.626 2.966-.916 3.899-.928 3.674-.047 6.572.724 8.76 2.323 1.309 1.008 2.471 2.601 3.367 4.795.947 2.144 1.394 4.106 1.367 5.786a30.201 30.201 0 0 1-1.38 8.612c-.536 1.855-.873 2.897-.968 3.126-.189.5-1.18 1.715-1.362 2.308-.512.634-1.024 1.132-1.535 1.443-1.158.765-2.723 1.401-4.693 1.823-1.19.324-1.972.515-2.337.521-1.671.016-3.334.05-5.006.083-.372-.215-1.024-.43-1.905-.639-.881-.2-1.482-.458-1.863-.723-3.525-2.251-5.421-6.165-5.66-11.842-.113-2.63.293-5.47 1.235-8.46l-.017.008Zm11.19 13.782c1.918-.032 3.354-.541 4.285-1.597.649-.683 1.206-1.775 1.673-3.282.466-1.5.703-2.77.7-3.814.002-.323.04-1.18.043-1.587.002-.407-.096-1.086-.289-1.495-1.199-2.45-2.618-3.671-4.306-3.647-2.071.023-3.848.785-5.206 2.313-1.357 1.486-1.978 3.23-1.93 5.224.086 2.91 1.296 7.957 5.021 7.893l.009-.008Zm17.21-12.91c.013-.866.089-2.274.177-4.31.087-2.044.164-3.587.136-4.716.259-.813 1.348-1.29 3.359-1.373.637-.03 1.477-.093 2.606-.104l2.707-.137h.195c1.323.06 2.01.13 2.052.182 1.221.185 2.145.368 2.873.542.246.06.915.32 2.024.741 2.116.886 2.673 1.373 2.561 3.23-.038.679-.238 1.628-.551 2.924-.313 1.305-.647 2.007-.996 2.217-.299.21-.987.36-2.048.439-1.315-.025-2.63-.04-3.945-.048-1.781-.078-3.172-.077-4.14.02a949.01 949.01 0 0 1-.162 4.767c1.73.06 3.452.13 5.182.207.806.038 1.22.371 1.191.965-.106 2.316-.431 4.206-.922 5.688-.061.271-.257.397-.58.379-1.17-.05-2.341-.098-3.511-.147-.374-.01-.756.106-1.182.366l-.019.45c-.031.95.063 2.316.274 4.142.219 1.783.304 3.15.274 4.006-.021.679-.134 1.221-.382 1.618-.416-.01-.823-.03-1.239-.04-.687-.021-2.103-.207-2.926-.229-1.051-.074-1.738-.222-2.05-.555-.27-.281-.486-.961-.641-2.056-.352-5.322-.461-11.686-.317-19.177v.009Zm21.207 6.702c.079-.491.032-1.23-.056-2.138-.088-.917-.093-1.596-.056-2.096.14-2.316.507-5.75 1.033-10.311.029-.5.488-.787 1.277-.782.399-.023.739-.038.985-.029.585-.005 1.806.13 1.857.13.246.018.729.097 1.119.125l.246.018c.441.036 1.119.176 2.034.385.967.209 1.491.44 1.575.585.135.145.201.52.206 1.062-.138.491-.382 1.652-.681 3.585-.142.958-.283 1.925-.432 2.883-.133 1.034-.318 2.161-.511 3.373l-.373 2.84c-.608 4.053-.916 6.079-.916 6.121-.073.908-.008 1.366.17 1.427l.653.054.653.055c.127 0 .255-.007.373-.015.238-.024.374-.015.425-.006 1.026.09 2.603.32 4.679.739.355.214.532.367.574.419.022.73-.035 1.824-.179 3.316-.01.136-.045.45-.142.992-.027.314-.063.636-.09.95-.072.72-.252 1.16-.686 1.345-.187.041-.382.082-.569.132-.238.024-1.247-.066-1.57-.051-2.46.054-5.361-.055-8.661-.294-.135-.01-1.187-.134-1.331-.144-.229.033-.509-.036-.813-.284-.219-.197-.402-.893-.599-2.133-.145-1.24-.183-2.105-.113-2.512-.024-3.25-.048-6.5-.081-9.74Zm16.801 14.925c.114-.67.436-1.966.913-3.88.76-2.372 1.528-4.743 2.297-7.115.05 0 .171-.253.171-.304l.543-1.499c.327-.83.483-1.363.543-1.49l.162-.211c.501-1.542 1.361-3.692 2.674-6.332.018-.135.069-.177.162-.16 1.606-3.427 3.044-5.642 4.305-6.678.767-.598 1.973-.77 3.584-.566 2.001.258 3.614 1.573 4.552 3.717.947 2.1 1.356 3.4 1.785 5.524.231 1.13.354 1.98.418 2.54.051 0 .043.05.076.144l.033.094c.115.798.221 1.596.335 2.386-.086.262-.019 1.79.004 2.299.01 1.239.046 2.3.109 3.182a.787.787 0 0 1-.017.136c.006 3.402.004 6.796-.006 10.19-.115.729-.221 1.466-.335 2.195-.018.136-.791.293-2.251.403-1.468.153-2.351.216-2.58.181l-.136-.018c-.864-.123-1.44-.339-1.634-.594-.514-.665-.712-1.608-.595-2.829l-.112-2.673c-.068-1.613-.097-2.487-.07-2.665-.249-.951.121-1.959-1.184-2.127h-.094a64.482 64.482 0 0 1-2.205-.158c-.186-.026-.331-.001-.433.083-.415-.053-.848-.056-1.23.036-.789-.098-.729 1.327-.774 1.692-.035.314-.197.432-.182.754-.069.22-.251.932-.622 2.075-.321 1.152-.494 1.77-.503 1.864-.416 1.508-1.285 2.267-2.592 2.302-.577-.063-1.162-.134-1.738-.197-.551-.062-1.187-.125-1.645-.221-.644-.072-1.211-.355-1.76-.918-.126-.153-.202-.298-.193-.34.027-.229.25-.61.225-.847v.025Zm15.278-11.7c.286-1.058.435-1.82.488-2.27.036-.288.071-.568.115-.856.31-2.34-.209-3.599-1.548-3.776-.907-.115-1.557.814-1.993 2.772l-.026.228c-.398 1.28-.64 2.076-.675 2.338a56.6 56.6 0 0 0-.053.407c-.182.661-.158.848-.229 1.484-.062.5.079.925.597.987 1.924.24 3.038-.203 3.324-1.313Zm11.694 16.212c-.424.023-.22-.086-.525-.223-.042 0-.584-.14-.635-.148-.432-.206-.52-1.182-.229-3.022.176-1.119.524-2.771 1.003-4.856.469-2.084.756-3.279.809-3.601l.044-.271c.633-2.508 1.275-5.008 1.917-7.515.143-1.221.473-2.687.758-3.509.181-.618.363-1.228.536-1.846.19-.585.38-1.169.578-1.745.336-.863.069-1.645 1.148-1.885.399-.015.797-.021 1.196-.036.654-.03 1.044-.011 1.154-.036a3.31 3.31 0 0 1 .789.038c1.662.281 3.323.57 4.984.868 1.695.307 3.574 1.25 5.558 2.882 1.867 1.47 2.918 3.164 3.394 4.507.217.646.348 1.462.283 2.513a19.998 19.998 0 0 1-.167 2.52c-.088.678-.289 1.652-.559 2.991l-.105.534-.524 2.585c-1.196 4.439-3.325 7.38-6.362 8.873-.383.252-.953.512-1.692.694-.145.017-.51.184-1.174.47-.672.292-1.173.476-1.581.627-.757.275-1.989.608-2.718.476a534.864 534.864 0 0 0-5.323-.92c-.847-.327-1.702-.655-2.557-.973v.008Zm7.197-4.957c-.017.093.025.145.118.162h.042c2.026.368 3.831-.64 4.908-2.06.555-.683 1.009-1.563 1.448-2.638.92-2.09 1.242-3.514 1.565-5.252.297-1.56.212-2.96-.23-4.294-.392-1.318-1.338-2.095-2.821-2.366l-.093-.018c-.4.295-.813 1.243-1.34 2.852-.484 1.618-1.445 5.142-2.825 10.573a10.734 10.734 0 0 0-.632 2.244c-.044.272-.096.534-.14.806v-.009Zm12.777 7.657c.182-.661.63-1.914 1.302-3.769a978.85 978.85 0 0 1 3.017-6.838c.051.009.196-.236.205-.279.232-.474.463-.956.687-1.43.411-.795.618-1.312.695-1.43l.188-.194c.661-1.49 1.733-3.537 3.308-6.022.026-.136.086-.17.179-.143 1.944-3.248 3.61-5.3 4.973-6.209.826-.513 2.048-.565 3.632-.191 1.975.46 3.46 1.936 4.177 4.163.734 2.185 1.007 3.518 1.224 5.675.112 1.154.15 2.003.163 2.571.051.01.034.052.059.154l.025.102.088 2.41c-.112.253-.196 1.78-.225 2.28a54.224 54.224 0 0 0-.213 3.181l-.034.136a1348.64 1348.64 0 0 1-1.033 10.141c-.182.72-.364 1.44-.555 2.152-.035.136-.824.208-2.292.165-1.476 0-2.375-.03-2.595-.082l-.136-.035c-.856-.208-1.406-.483-1.574-.755-.445-.715-.55-1.675-.306-2.878.056-.89.103-1.781.159-2.672.094-1.611.158-2.485.202-2.663-.156-.968.316-1.932-.972-2.237l-.093-.017c-1.212-.194-1.958-.316-2.196-.369-.186-.043-.33-.027-.441.04-.415-.095-.839-.14-1.238-.092-.78-.174-.864 1.251-.943 1.607-.069.314-.239.415-.258.737-.095.212-.345.897-.834 1.998-.439 1.109-.672 1.71-.689 1.803-.56 1.456-1.514 2.13-2.82 2.029-.576-.122-1.144-.244-1.72-.375-.542-.113-1.178-.252-1.618-.39-.636-.131-1.177-.474-1.666-1.087-.109-.162-.168-.315-.159-.358.044-.22.309-.583.31-.82l.017-.01Zm16.448-10.08c.388-1.025.613-1.77.717-2.211.069-.28.13-.56.2-.84.547-2.295.156-3.604-1.166-3.909-.898-.208-1.641.645-2.271 2.55l-.052.22c-.525 1.228-.852 1.998-.912 2.26-.027.136-.061.263-.087.399-.242.643-.243.83-.382 1.449-.113.482-.014.924.495 1.046 1.898.435 3.054.102 3.458-.965Z"/>
  <path stroke="#fff" stroke-width="2" d="M5.523 34.257a8.928 8.928 0 0 1-.67-1.471c-.317-1.046-.757-2.762-.974-3.408-.35-1.113-.7-2.227-1.06-3.34-.566-1.828-.974-3.221-1.24-4.232l-.373-1.453c.009-.085.026-.161.035-.246-.008-.043-.04-.552.003-.611.21-.94 2.064-1.847 5.556-2.7l.093-.026c2.056-.497 2.728-.655 3.634 1.047.116.501.24 1.003.357 1.504.174.747.388 1.869.617 3.448.263 1.529.485 2.684.668 3.44.985-.232 2.001-1.355 2.98-3.394 1.02-2.048 1.676-3.826 1.912-5.224.175-.78.266-1.967.267-2.196.114-.627.65-.938 2.52-1.335.45-.1.9-.19 1.341-.29.145-.033.527-.115 1.257-.222.73-.106 1.164-.197 1.316-.179l.297-.015a.704.704 0 0 0 .297-.015c.204 0 1.374.092 1.417.084.356.019.583.393.732 1.15.289 1.426-.087 3.308-1.092 5.601-.163.262-.317.533-.48.795-1.488 2.113-2.463 3.49-2.898 3.997-.35.43-.701.861-1.043 1.292-.188.27-2.457 2.405-2.178 2.576l.033.136c.975.2 2.032.8 3.215 1.757 1.47 1.17 2.34 1.863 2.525 2.059 1.931 2.047 3.56 5.051 4.904 9.038l.05.22c.05.222.04.408-.003.467-.996.665-2.569 1.233-4.778 1.713l-1.486.322c-.408.092-.62-.003-.618-.232-.961-2.627-2.054-4.517-3.328-5.678-.06-.034-.068-.077-.033-.136-1.386-1.034-2.36-1.464-2.86-1.348l-.136.033c.015.196.031.4.039.594.306 1.3.604 2.592.911 3.891-.018.145.098.629.238 1.436.132.764.248 1.248.272 1.384.173.943-.068 1.552-.638 1.922-.723.361-2.05.761-3.927 1.226-.136.033-.493.124-1.13.23-.373.092-.747.183-1.121.283-.365.049-.661-.165-.897-.523-.235-.366-.578-1.165-.678-1.564l-.21-.273a2.135 2.135 0 0 1-.21-.46c-.093-.161-.325-1.087-.332-1.316a3259.167 3259.167 0 0 0-3.11-9.75l.017-.008Zm25.882 6.67c-.09-.68-.167-2.004-.283-3.973.014-2.494.053-4.98.093-7.474.042-.008.087-.296.078-.339.02-.526.049-1.06.077-1.586.064-.89.059-1.442.077-1.586.034-.085.069-.17.095-.254.025-1.62.208-3.927.683-6.835-.025-.136.01-.186.111-.203.513-3.747 1.24-6.288 2.13-7.65.556-.793 1.653-1.322 3.258-1.601 1.988-.354 3.918.429 5.452 2.202 1.526 1.731 2.3 2.847 3.342 4.745a31.107 31.107 0 0 1 1.15 2.297c.05 0 .05.034.117.12l.06.085c.343.723.687 1.454 1.022 2.186-.001.28.508 1.716.684 2.192a53.616 53.616 0 0 0 1.043 3.01l.025.136c1.017 3.246 2.017 6.493 3.017 9.74.114.73.22 1.469.335 2.2.025.135-.664.513-2.025 1.048-1.352.578-2.185.904-2.406.937l-.136.025c-.858.14-1.468.102-1.739-.086-.684-.488-1.155-1.33-1.403-2.528-.3-.842-.601-1.683-.893-2.517-.543-1.521-.827-2.346-.86-2.524-.521-.835-.465-1.903-1.764-1.681l-.093.016c-1.19.299-1.92.473-2.15.514-.187.033-.314.1-.391.21-.416.074-.824.19-1.173.392-.79.14-.297 1.483-.231 1.84.057.314-.054.475.047.772-.002.23.037.968.021 2.164.028 1.196.058 1.833.074 1.926.051 1.562-.557 2.551-1.79 2.968-.569.107-1.146.223-1.715.33-.544.107-1.172.231-1.64.27-.628.125-1.264.02-1.949-.35-.16-.102-.278-.222-.287-.264-.04-.22.055-.662-.037-.874h-.026Zm11.135-15.71c-.045-1.095-.125-1.868-.208-2.318-.049-.28-.098-.569-.148-.85-.402-2.326-1.262-3.374-2.595-3.144-.9.156-1.246 1.24-1.079 3.235l.041.22c-.007 1.341.005 2.172.055 2.436.024.136.049.272.074.399.03.687.105.857.22 1.486.091.493.352.859.862.768 1.91-.337 2.84-1.095 2.787-2.24l-.009.008Zm14.75 8.482a4590.104 4590.104 0 0 0-3.493-18.813c-.25-.74-.516-1.852-.779-3.33s-.504-2.446-.636-2.981c.111-.246 1.106-.58 3.068-1.035.204.018 1.554-.212 1.741-.288.195-.024 1.955-.54 2.243-.623.926-.122 1.852-.244 2.777-.358a65.822 65.822 0 0 1 2.768-.383l.976-.071a17.13 17.13 0 0 0 1.273-.103c1.12-.087 1.96-.083 2.453-.097A8.745 8.745 0 0 1 73.637 6.7l1.447.72c.211.12.481.41.775.879.49.452.92.913 1.198 1.296.234.604.477 1.2.711 1.803.687 1.624.986 2.78 1.063 4.095.181 2.496-1.765 4.631-4.34 5.49-1.09.419-2.169.837-3.249 1.264l.024.229c1.034.294 2.37 1.201 3.982 2.635 2.574 2.475 4.294 5.87 4.47 9.189 0 .042.016.178-.002.415l-.019.323-.154.287c-.12.152-1.08.283-2.913.476-.186.016-.637.107-1.316.23-.68.115-1.223.222-1.588.263h-.043c-.433-1.454-1.264-3.053-2.484-4.791-1.178-1.738-2.394-2.881-3.545-3.38-.397-.18-1.751-.79-2.26-.734h-.043l-.128.11c.016.136.087 1.086.103 1.222.104 1.222.21 2.038.3 2.437.067.178.135.306.134.348.244.477.347 1.648.532 2.04.079 1.027.167 2.054.246 3.08.03.637-.193 1.077-.678 1.278-1.257.298-2.802.493-4.678.661a23.81 23.81 0 0 1-2.106.2c-.042 0-.432-.12-.44-.163l-.152-.069c-.398-1.606-.805-3.22-1.203-4.826l.008-.008Zm5.32-15.429c.267.969.618 1.794 1.85 1.64 3.386-.194 5.673-1.08 5.582-4.542-.127-1.588-.775-2.567-1.986-2.973-1.973-.638-3.567-.902-4.823-.79-.365.049-.738.089-1.104.138-.237.032-.365.184-.325.499.025.178.045 1.137.07 1.273-.019.229.038.679.111 1.264.025.179.09.722.254 1.614.157.85.23 1.393.246 1.529.016.135.126.212.142.348h-.017Zm25.812 16.29c-.316-1.07-.57-2.6-.72-4.543-.13-1.036-.305-3.26-.574-6.74-.269-3.488-.451-5.746-.488-6.798-.164-.9-.287-1.8-.358-2.751-.04-.501-.217-2.123-.853-2.211-.45.031-.9.071-1.35.111-.72.056-2.394.335-3.115.407-.289.024-.578.048-.866.08a.745.745 0 0 1-.406-.24c-.158-.629-.307-1.249-.465-1.87-.08-.814-.117-1.815-.127-2.995-.024-.229.054-2.104.08-2.29a.547.547 0 0 1-.235-.392c-.016-.136.035-.186.171-.245.934-.164 1.877-.32 2.811-.476 1.41-.255 2.53-.393 3.312-.457 1.324-.103 2.85-.035 4.682.205.78-.055 1.562-.11 2.342-.157 1.86-.117 2.98-.23 3.37-.346 1.987-.116 3.981-.215 5.967-.306.636-.03 2.084.546 2.106 1.09l.225 5.354c.023.501-.922 1.081-1.441 1.248-.714.259-1.623.44-2.633.537-1.97.235-3.42.133-5.339.386l.56 9.157c.295 1.758.498 3.516.606 5.332.039.637.059 1.68.093 3.131.043 1.409.062 2.546.16 3.36a2.896 2.896 0 0 1-.696 1.405c-.691.769-1.142.936-2.434 1.43-.136.058-.273.108-.4.167-.315.108-.68.182-1.045.206-.73.055-1.662-.154-2.813-.66l-.152-.129h.025Zm17.124-22.998c.941-2.99 2.421-5.179 4.38-6.509.809-.521 2.017-1.1 3.718-1.727 1.7-.626 2.966-.916 3.899-.928 3.674-.047 6.572.724 8.76 2.323 1.309 1.008 2.471 2.601 3.367 4.795.947 2.144 1.394 4.106 1.367 5.786a30.201 30.201 0 0 1-1.38 8.612c-.536 1.855-.873 2.897-.968 3.126-.189.5-1.18 1.715-1.362 2.308-.512.634-1.024 1.132-1.535 1.443-1.158.765-2.723 1.401-4.693 1.823-1.19.324-1.972.515-2.337.521-1.671.016-3.334.05-5.006.083-.372-.215-1.024-.43-1.905-.639-.881-.2-1.482-.458-1.863-.723-3.525-2.251-5.421-6.165-5.66-11.842-.113-2.63.293-5.47 1.235-8.46l-.017.008Zm11.19 13.782c1.918-.032 3.354-.541 4.285-1.597.649-.683 1.206-1.775 1.673-3.282.466-1.5.703-2.77.7-3.814.002-.323.04-1.18.043-1.587.002-.407-.096-1.086-.289-1.495-1.199-2.45-2.618-3.671-4.306-3.647-2.071.023-3.848.785-5.206 2.313-1.357 1.486-1.978 3.23-1.93 5.224.086 2.91 1.296 7.957 5.021 7.893l.009-.008Zm17.21-12.91c.013-.866.089-2.274.177-4.31.087-2.044.164-3.587.136-4.716.259-.813 1.348-1.29 3.359-1.373.637-.03 1.477-.093 2.606-.104l2.707-.137h.195c1.323.06 2.01.13 2.052.182 1.221.185 2.145.368 2.873.542.246.06.915.32 2.024.741 2.116.886 2.673 1.373 2.561 3.23-.038.679-.238 1.628-.551 2.924-.313 1.305-.647 2.007-.996 2.217-.299.21-.987.36-2.048.439-1.315-.025-2.63-.04-3.945-.048-1.781-.078-3.172-.077-4.14.02a949.01 949.01 0 0 1-.162 4.767c1.73.06 3.452.13 5.182.207.806.038 1.22.371 1.191.965-.106 2.316-.431 4.206-.922 5.688-.061.271-.257.397-.58.379-1.17-.05-2.341-.098-3.511-.147-.374-.01-.756.106-1.182.366l-.019.45c-.031.95.063 2.316.274 4.142.219 1.783.304 3.15.274 4.006-.021.679-.134 1.221-.382 1.618-.416-.01-.823-.03-1.239-.04-.687-.021-2.103-.207-2.926-.229-1.051-.074-1.738-.222-2.05-.555-.27-.281-.486-.961-.641-2.056-.352-5.322-.461-11.686-.317-19.177v.009Zm21.207 6.702c.079-.491.032-1.23-.056-2.138-.088-.917-.093-1.596-.056-2.096.14-2.316.507-5.75 1.033-10.311.029-.5.488-.787 1.277-.782.399-.023.739-.038.985-.029.585-.005 1.806.13 1.857.13.246.018.729.097 1.119.125l.246.018c.441.036 1.119.176 2.034.385.967.209 1.491.44 1.575.585.135.145.201.52.206 1.062-.138.491-.382 1.652-.681 3.585-.142.958-.283 1.925-.432 2.883-.133 1.034-.318 2.161-.511 3.373l-.373 2.84c-.608 4.053-.916 6.079-.916 6.121-.073.908-.008 1.366.17 1.427l.653.054.653.055c.127 0 .255-.007.373-.015.238-.024.374-.015.425-.006 1.026.09 2.603.32 4.679.739.355.214.532.367.574.419.022.73-.035 1.824-.179 3.316-.01.136-.045.45-.142.992-.027.314-.063.636-.09.95-.072.72-.252 1.16-.686 1.345-.187.041-.382.082-.569.132-.238.024-1.247-.066-1.57-.051-2.46.054-5.361-.055-8.661-.294-.135-.01-1.187-.134-1.331-.144-.229.033-.509-.036-.813-.284-.219-.197-.402-.893-.599-2.133-.145-1.24-.183-2.105-.113-2.512-.024-3.25-.048-6.5-.081-9.74Zm16.801 14.925c.114-.67.436-1.966.913-3.88.76-2.372 1.528-4.743 2.297-7.115.05 0 .171-.253.171-.304l.543-1.499c.327-.83.483-1.363.543-1.49l.162-.211c.501-1.542 1.361-3.692 2.674-6.332.018-.135.069-.177.162-.16 1.606-3.427 3.044-5.642 4.305-6.678.767-.598 1.973-.77 3.584-.566 2.001.258 3.614 1.573 4.552 3.717.947 2.1 1.356 3.4 1.785 5.524.231 1.13.354 1.98.418 2.54.051 0 .043.05.076.144l.033.094c.115.798.221 1.596.335 2.386-.086.262-.019 1.79.004 2.299.01 1.239.046 2.3.109 3.182a.787.787 0 0 1-.017.136c.006 3.402.004 6.796-.006 10.19-.115.729-.221 1.466-.335 2.195-.018.136-.791.293-2.251.403-1.468.153-2.351.216-2.58.181l-.136-.018c-.864-.123-1.44-.339-1.634-.594-.514-.665-.712-1.608-.595-2.829l-.112-2.673c-.068-1.613-.097-2.487-.07-2.665-.249-.951.121-1.959-1.184-2.127h-.094a64.482 64.482 0 0 1-2.205-.158c-.186-.026-.331-.001-.433.083-.415-.053-.848-.056-1.23.036-.789-.098-.729 1.327-.774 1.692-.035.314-.197.432-.182.754-.069.22-.251.932-.622 2.075-.321 1.152-.494 1.77-.503 1.864-.416 1.508-1.285 2.267-2.592 2.302-.577-.063-1.162-.134-1.738-.197-.551-.062-1.187-.125-1.645-.221-.644-.072-1.211-.355-1.76-.918-.126-.153-.202-.298-.193-.34.027-.229.25-.61.225-.847v.025Zm15.278-11.7c.286-1.058.435-1.82.488-2.27.036-.288.071-.568.115-.856.31-2.34-.209-3.599-1.548-3.776-.907-.115-1.557.814-1.993 2.772l-.026.228c-.398 1.28-.64 2.076-.675 2.338a56.6 56.6 0 0 0-.053.407c-.182.661-.158.848-.229 1.484-.062.5.079.925.597.987 1.924.24 3.038-.203 3.324-1.313Zm11.694 16.212c-.424.023-.22-.086-.525-.223-.042 0-.584-.14-.635-.148-.432-.206-.52-1.182-.229-3.022.176-1.119.524-2.771 1.003-4.856.469-2.084.756-3.279.809-3.601l.044-.271c.633-2.508 1.275-5.008 1.917-7.515.143-1.221.473-2.687.758-3.509.181-.618.363-1.228.536-1.846.19-.585.38-1.169.578-1.745.336-.863.069-1.645 1.148-1.885.399-.015.797-.021 1.196-.036.654-.03 1.044-.011 1.154-.036a3.31 3.31 0 0 1 .789.038c1.662.281 3.323.57 4.984.868 1.695.307 3.574 1.25 5.558 2.882 1.867 1.47 2.918 3.164 3.394 4.507.217.646.348 1.462.283 2.513a19.998 19.998 0 0 1-.167 2.52c-.088.678-.289 1.652-.559 2.991l-.105.534-.524 2.585c-1.196 4.439-3.325 7.38-6.362 8.873-.383.252-.953.512-1.692.694-.145.017-.51.184-1.174.47-.672.292-1.173.476-1.581.627-.757.275-1.989.608-2.718.476a534.864 534.864 0 0 0-5.323-.92c-.847-.327-1.702-.655-2.557-.973v.008Zm7.197-4.957c-.017.093.025.145.118.162h.042c2.026.368 3.831-.64 4.908-2.06.555-.683 1.009-1.563 1.448-2.638.92-2.09 1.242-3.514 1.565-5.252.297-1.56.212-2.96-.23-4.294-.392-1.318-1.338-2.095-2.821-2.366l-.093-.018c-.4.295-.813 1.243-1.34 2.852-.484 1.618-1.445 5.142-2.825 10.573a10.734 10.734 0 0 0-.632 2.244c-.044.272-.096.534-.14.806v-.009Zm12.777 7.657c.182-.661.63-1.914 1.302-3.769a978.85 978.85 0 0 1 3.017-6.838c.051.009.196-.236.205-.279.232-.474.463-.956.687-1.43.411-.795.618-1.312.695-1.43l.188-.194c.661-1.49 1.733-3.537 3.308-6.022.026-.136.086-.17.179-.143 1.944-3.248 3.61-5.3 4.973-6.209.826-.513 2.048-.565 3.632-.191 1.975.46 3.46 1.936 4.177 4.163.734 2.185 1.007 3.518 1.224 5.675.112 1.154.15 2.003.163 2.571.051.01.034.052.059.154l.025.102.088 2.41c-.112.253-.196 1.78-.225 2.28a54.224 54.224 0 0 0-.213 3.181l-.034.136a1348.64 1348.64 0 0 1-1.033 10.141c-.182.72-.364 1.44-.555 2.152-.035.136-.824.208-2.292.165-1.476 0-2.375-.03-2.595-.082l-.136-.035c-.856-.208-1.406-.483-1.574-.755-.445-.715-.55-1.675-.306-2.878.056-.89.103-1.781.159-2.672.094-1.611.158-2.485.202-2.663-.156-.968.316-1.932-.972-2.237l-.093-.017c-1.212-.194-1.958-.316-2.196-.369-.186-.043-.33-.027-.441.04-.415-.095-.839-.14-1.238-.092-.78-.174-.864 1.251-.943 1.607-.069.314-.239.415-.258.737-.095.212-.345.897-.834 1.998-.439 1.109-.672 1.71-.689 1.803-.56 1.456-1.514 2.13-2.82 2.029-.576-.122-1.144-.244-1.72-.375-.542-.113-1.178-.252-1.618-.39-.636-.131-1.177-.474-1.666-1.087-.109-.162-.168-.315-.159-.358.044-.22.309-.583.31-.82l.017-.01Zm16.448-10.08c.388-1.025.613-1.77.717-2.211.069-.28.13-.56.2-.84.547-2.295.156-3.604-1.166-3.909-.898-.208-1.641.645-2.271 2.55l-.052.22c-.525 1.228-.852 1.998-.912 2.26-.027.136-.061.263-.087.399-.242.643-.243.83-.382 1.449-.113.482-.014.924.495 1.046 1.898.435 3.054.102 3.458-.965Z" mask="url(#a)"/>
  <path fill="#2E3192" d="m34.336 59.74-2.808-8.46h2.46l1.464 4.86 1.62-4.885h2.004l1.62 4.884 1.464-4.86h2.412l-2.808 8.46h-2.028l-1.68-4.836-1.692 4.836h-2.028Zm11.222-.06v-8.4h2.328v8.4h-2.328Zm3.866 0v-8.4h6.756v1.967h-4.452v1.284h4.032v1.836h-4.032V57.7h4.512v1.98h-6.816Zm8.016 0v-8.4h2.328v6.36h4.068v2.04H57.44Zm7.406 0v-8.4h2.328v3.407l2.892-3.408h2.76l-3.18 3.6 3.288 4.8H70.15l-2.124-3.12-.852.936v2.184h-2.328Zm8.825 0v-8.4H76v8.4h-2.328Zm3.866 0v-8.4h6.756v1.967h-4.452v1.284h4.032v1.836h-4.032V57.7h4.512v1.98h-6.816Zm14.913.143c-1.5 0-2.88-.468-3.936-1.392l1.297-1.548c.851.672 1.763 1.008 2.723 1.008.636 0 .972-.204.972-.576v-.024c0-.36-.275-.528-1.427-.816-1.776-.408-3.168-.9-3.168-2.628v-.024c0-1.572 1.236-2.688 3.251-2.688 1.44 0 2.544.384 3.456 1.116l-1.163 1.644c-.769-.564-1.596-.828-2.352-.828-.564 0-.84.216-.84.54v.024c0 .372.287.564 1.463.816 1.92.42 3.12 1.044 3.12 2.616v.024c0 1.716-1.356 2.736-3.395 2.736Zm-1.008-9.24 1.297-1.944 2.171.66-1.775 1.284h-1.693Zm7.476 9.157-2.808-8.46h2.46l1.464 4.86 1.62-4.885h2.004l1.62 4.884 1.464-4.86h2.412l-2.808 8.46h-2.028l-1.68-4.836-1.692 4.836h-2.028Zm11.222-.06v-8.4h2.328v8.4h-2.328Zm3.866 0v-8.4h6.756v1.967h-4.452v1.284h4.032v1.836h-4.032V57.7h4.512v1.98h-.612c-.18.204-.264.384-.264.564 0 .324.252.468.864.432v.972c-.252.036-.48.048-.708.048-1.152 0-1.824-.432-1.824-1.044 0-.324.156-.648.48-.972h-4.752Zm10.068 0v-6.36h-2.508v-2.04h7.356v2.04h-2.52v6.36h-2.328Zm9.742.167c-2.592 0-4.512-1.944-4.512-4.344v-.024c0-2.412 1.944-4.368 4.536-4.368 2.592 0 4.512 1.944 4.512 4.344v.024c0 2.412-1.944 4.368-4.536 4.368Zm.024-2.1c1.272 0 2.124-1.032 2.124-2.244v-.024c0-1.224-.864-2.268-2.148-2.268-1.284 0-2.136 1.032-2.136 2.244v.024c0 1.2.876 2.268 2.16 2.268Zm9.059 1.933v-1.693l4.212-4.752h-4.068V51.28h7.272v1.68l-4.212 4.752h4.212v1.968h-7.416Zm8.69 0v-8.4h2.328v8.4h-2.328Zm3.866 0v-8.4h6.756v1.967h-4.452v1.284h4.032v1.836h-4.032V57.7h4.512v1.98h-6.816Zm8.016 0v-8.4h2.46l2.004 3.251 2.004-3.252h2.46v8.4h-2.316v-4.824l-2.148 3.288h-.048l-2.136-3.276v4.812h-2.28Zm10.418 0v-8.4h2.172l3.456 4.44v-4.44h2.304v8.4h-2.028l-3.6-4.609v4.608h-2.304Zm9.482 0v-8.4h2.328v8.4h-2.328Zm3.205 0 3.564-8.46h2.244l3.576 8.46h-2.496l-.6-1.513h-3.252l-.6 1.512h-2.436Zm3.72-3.325h1.884l-.936-2.376-.948 2.376Zm6.48 3.325v-8.4h2.328v3.407l2.892-3.408h2.76l-3.18 3.6 3.288 4.8h-2.784l-2.124-3.12-.852.936v2.184h-2.328Z"/>
  <path fill="#2E3192" d="m204.647 59.68 3.564-8.46h2.244l3.576 8.46h-2.496l-.6-1.513h-3.252l-.6 1.512h-2.436Zm3.72-3.325h1.884l-.936-2.376-.948 2.376Z"/>
</svg>
