<svg xmlns="http://www.w3.org/2000/svg" width="94" height="58" fill="none" viewBox="0 0 94 58">
  <mask id="a" fill="#fff">
    <path d="M11.623 28.822c26.312-8.83 54.703-12.305 82.37-8.513V28.8h-82.37"/>
  </mask>
  <path fill="#fff" d="M11.623 28.822c26.312-8.83 54.703-12.305 82.37-8.513V28.8h-82.37"/>
  <path fill="#fff" d="M93.992 20.309h2v-1.745l-1.728-.237-.272 1.982Zm0 8.491v2h2v-2h-2ZM12.26 30.718c26.058-8.744 54.137-12.172 81.462-8.428l.543-3.963c-28.009-3.838-56.71-.316-83.277 8.6l1.272 3.791Zm79.733-10.41V28.8h4v-8.491h-4Zm2 6.492h-82.37v4h82.37v-4Z" mask="url(#a)"/>
  <mask id="b" fill="#fff">
    <path d="M83.149 16.861C55.742 10.736 26.953 12.045 0 19.871v9.095a198.464 198.464 0 0 1 15.652-5.31 190.097 190.097 0 0 1 16.056-3.968 182.578 182.578 0 0 1 16.338-2.539c5.48-.598 10.992-.942 16.504-1.02a164.837 164.837 0 0 1 18.594.782"/>
  </mask>
  <path fill="#fff" d="M83.149 16.861C55.742 10.736 26.953 12.045 0 19.871v9.095a198.464 198.464 0 0 1 15.652-5.31 190.097 190.097 0 0 1 16.056-3.968 182.578 182.578 0 0 1 16.338-2.539c5.48-.598 10.992-.942 16.504-1.02a164.837 164.837 0 0 1 18.594.782"/>
  <path fill="#fff" d="m0 19.87-.558-1.92-1.442.42v1.502h2Zm0 9.096h-2v2.917l2.72-1.05L0 28.965Zm31.708-9.278.394 1.96h.003l-.397-1.96ZM64.55 16.13l-.028-2 .028 2Zm16.542.593.177-1.992h-.004l-.173 1.992Zm2.493-1.814C55.831 8.707 26.7 10.036-.558 17.95l1.116 3.842c26.649-7.738 55.096-9.026 82.155-2.979l.872-3.904ZM-2 19.871v9.095h4v-9.095h-4ZM.72 30.832a196.4 196.4 0 0 1 15.495-5.256l-1.126-3.839A200.416 200.416 0 0 0-.72 27.101l1.442 3.731Zm15.495-5.256a188.109 188.109 0 0 1 15.887-3.927l-.788-3.922a192.102 192.102 0 0 0-16.225 4.01l1.126 3.839Zm15.89-3.928a180.582 180.582 0 0 1 16.158-2.51l-.434-3.977a184.583 184.583 0 0 0-16.517 2.567l.793 3.92Zm16.158-2.51a172.66 172.66 0 0 1 16.315-1.009l-.056-4c-5.577.08-11.152.427-16.693 1.032l.434 3.977Zm16.315-1.009a162.8 162.8 0 0 1 16.342.586l.345-3.985c-5.57-.482-11.16-.679-16.743-.6l.056 4Zm16.337.586c.686.06 1.358.121 2.035.187l.387-3.982c-.695-.067-1.382-.129-2.068-.19l-.354 3.985Z" mask="url(#b)"/>
  <mask id="c" fill="#fff">
    <path d="M93.991 15.72C63.781 5.699 31.271 3.21 0 6.846v8.364c30.757-6.812 63.195-7.25 93.897.521"/>
  </mask>
  <path fill="#fff" d="M93.991 15.72C63.781 5.699 31.271 3.21 0 6.846v8.364c30.757-6.812 63.195-7.25 93.897.521"/>
  <path fill="#fff" d="M0 6.846-.231 4.86-2 5.065v1.781h2Zm0 8.364h-2v2.491l2.432-.538L0 15.21Zm94.62-1.388C64.103 3.698 31.296 1.194-.23 4.859l.462 3.974c31.017-3.607 63.23-1.133 93.13 8.785l1.26-3.796ZM-2 6.846v8.364h4V6.846h-4ZM.432 17.163c30.492-6.754 62.612-7.178 92.974.507l.982-3.878C63.347 5.935 30.59 6.387-.432 13.257l.864 3.906Z" mask="url(#c)"/>
  <path fill="#fff" stroke="#fff" stroke-width="2" d="M92.993 1v8.137C79.943 5.332 66.49 2.647 53.032 1h39.961Z"/>
  <mask id="d" fill="#fff">
    <path d="M6.223 43.466h-1.45L1.339 39.39a2.481 2.481 0 0 1-.236-.311h-.025v4.387H.038v-8.91h1.04v4.188h.025c.058-.092.137-.193.236-.305l3.322-3.884h1.296l-3.812 4.276 4.078 4.635Zm4.351-5.331c-.177-.137-.434-.206-.768-.206-.434 0-.798.206-1.091.616-.29.41-.434.969-.434 1.677v3.244H7.264v-6.363h1.017v1.311h.025c.144-.447.365-.795.663-1.044.298-.252.63-.379.998-.379.264 0 .467.03.607.087v1.056Zm5.647 5.331h-1.016v-.994h-.025c-.442.762-1.093 1.143-1.953 1.143-.632 0-1.128-.168-1.487-.503-.356-.336-.533-.781-.533-1.336 0-1.19.698-1.88 2.095-2.076l1.903-.267c0-1.081-.436-1.622-1.308-1.622-.765 0-1.455.261-2.07.783V37.55c.623-.397 1.342-.596 2.156-.596 1.492 0 2.238.791 2.238 2.374v4.138Zm-1.016-3.219-1.531.212c-.471.066-.827.184-1.066.354-.24.165-.36.462-.36.888 0 .311.11.566.329.765.223.194.518.292.886.292.504 0 .92-.176 1.246-.529.33-.356.496-.805.496-1.348v-.634Zm3.948 2.952c0 1.044-.21 1.847-.632 2.41-.418.568-1.017.852-1.798.852-.289 0-.57-.066-.843-.199v-.95c.306.186.595.28.868.28.926 0 1.389-.742 1.389-2.225v-6.264h1.016v6.096Zm-.496-7.712A.643.643 0 0 1 18 34.83a.63.63 0 0 1 .192-.473.633.633 0 0 1 .465-.192.64.64 0 0 1 .471.192.62.62 0 0 1 .198.473.626.626 0 0 1-.198.466.64.64 0 0 1-.47.192Zm5.207 8.128c-.938 0-1.688-.296-2.25-.888-.558-.597-.837-1.386-.837-2.368 0-1.069.291-1.903.874-2.504.583-.6 1.37-.901 2.361-.901.947 0 1.684.292 2.213.876.533.584.8 1.394.8 2.43 0 1.015-.287 1.829-.862 2.442-.57.609-1.336.913-2.3.913Zm.074-5.804c-.653 0-1.17.224-1.55.672-.38.443-.57 1.056-.57 1.839 0 .754.192 1.348.577 1.783.384.435.899.653 1.543.653.657 0 1.161-.214 1.513-.64.355-.427.533-1.034.533-1.821 0-.795-.178-1.408-.533-1.84-.352-.43-.856-.646-1.513-.646Zm12.707-.708-1.903 6.363h-1.054l-1.308-4.555a2.972 2.972 0 0 1-.099-.59h-.025c-.012.15-.055.342-.13.578l-1.42 4.567H29.69l-1.921-6.363h1.066l1.314 4.785c.041.145.07.335.087.571h.05c.012-.182.049-.377.11-.584l1.464-4.772h.93l1.313 4.797c.042.153.073.344.093.572h.05c.008-.162.043-.352.105-.572l1.29-4.797h1.004Zm6.229 0-2.92 7.382c-.52 1.317-1.251 1.976-2.193 1.976-.265 0-.486-.027-.664-.08v-.914c.22.075.42.112.602.112.512 0 .896-.307 1.153-.92l.508-1.205-2.48-6.351h1.128l1.717 4.896c.021.063.065.224.13.485h.038c.02-.1.062-.257.124-.472l1.804-4.909h1.053Zm8.3 6.512c-1.26 0-2.27-.416-3.031-1.249-.756-.833-1.134-1.916-1.134-3.25 0-1.433.386-2.576 1.159-3.43.773-.853 1.824-1.28 3.155-1.28 1.227 0 2.215.415 2.963 1.243.752.828 1.128 1.912 1.128 3.25 0 1.454-.385 2.603-1.153 3.448-.769.846-1.798 1.268-3.087 1.268Zm.074-8.264c-.934 0-1.692.337-2.274 1.013-.583.675-.874 1.561-.874 2.66 0 1.097.283 1.981.849 2.652.57.667 1.312 1 2.225 1 .975 0 1.744-.318 2.306-.956.562-.638.843-1.53.843-2.678 0-1.177-.273-2.086-.818-2.728-.546-.642-1.298-.963-2.257-.963Zm5.392 7.885v-1.093a3.01 3.01 0 0 0 1.83.615c.892 0 1.338-.299 1.338-.895a.752.752 0 0 0-.117-.429 1.071 1.071 0 0 0-.31-.317 2.167 2.167 0 0 0-.459-.242 17.605 17.605 0 0 0-.564-.23 8.146 8.146 0 0 1-.744-.336 2.457 2.457 0 0 1-.533-.385 1.532 1.532 0 0 1-.322-.49 1.776 1.776 0 0 1-.106-.64c0-.3.069-.562.205-.79a1.77 1.77 0 0 1 .545-.578 2.53 2.53 0 0 1 .775-.354c.294-.079.595-.118.905-.118.55 0 1.041.095 1.475.286v1.031c-.467-.306-1.004-.46-1.611-.46-.19 0-.362.023-.515.069a1.248 1.248 0 0 0-.396.18.88.88 0 0 0-.255.286.749.749 0 0 0-.086.36c0 .166.029.305.087.416a.95.95 0 0 0 .266.299c.116.087.256.166.421.236.166.07.354.147.564.23.282.108.534.22.757.335.223.112.413.24.57.386.157.14.277.304.36.49.086.187.13.409.13.665 0 .315-.07.589-.211.82a1.75 1.75 0 0 1-.552.578 2.538 2.538 0 0 1-.8.342 3.937 3.937 0 0 1-.948.112c-.653 0-1.219-.126-1.698-.379Zm3.782-9.377-1.624 2.038h-.787l1.382-2.038h1.029Zm5.306 4.276c-.178-.137-.434-.206-.769-.206-.434 0-.797.206-1.09.616-.29.41-.435.969-.435 1.677v3.244h-1.016v-6.363h1.016v1.311h.025c.145-.447.366-.795.663-1.044.298-.252.63-.379.998-.379.265 0 .467.03.608.087v1.056Zm3.756 5.48c-.938 0-1.688-.296-2.25-.888-.558-.597-.837-1.386-.837-2.368 0-1.069.292-1.903.874-2.504.583-.6 1.37-.901 2.362-.901.946 0 1.684.292 2.213.876.533.584.8 1.394.8 2.43 0 1.015-.288 1.829-.862 2.442-.57.609-1.337.913-2.3.913Zm.074-5.804c-.653 0-1.169.224-1.55.672-.38.443-.57 1.056-.57 1.839 0 .754.193 1.348.577 1.783.384.435.899.653 1.543.653.657 0 1.162-.214 1.513-.64.355-.427.533-1.034.533-1.821 0-.795-.178-1.408-.533-1.84-.351-.43-.855-.646-1.513-.646Zm10.129 5.655H78.67v-1.081h-.025c-.47.82-1.198 1.23-2.182 1.23-.797 0-1.435-.284-1.915-.851-.475-.572-.713-1.349-.713-2.33 0-1.053.265-1.896.794-2.53.529-.633 1.233-.95 2.113-.95.872 0 1.507.344 1.903 1.031h.025v-3.94h1.017v9.421Zm-1.017-2.877v-.938c0-.514-.17-.949-.508-1.305-.339-.356-.769-.535-1.29-.535-.62 0-1.107.228-1.462.684-.356.456-.533 1.085-.533 1.889 0 .733.17 1.313.508 1.74.343.422.802.634 1.376.634.566 0 1.025-.205 1.376-.616.355-.41.533-.928.533-1.553Zm8.176-.049h-4.482c.017.708.207 1.255.57 1.64.364.385.864.578 1.5.578.716 0 1.373-.236 1.972-.709v.957c-.558.406-1.296.61-2.213.61-.897 0-1.601-.289-2.114-.865-.512-.58-.768-1.394-.768-2.442 0-.99.278-1.795.836-2.417.562-.625 1.259-.938 2.09-.938.83 0 1.472.27 1.927.808.454.538.682 1.286.682 2.243v.534Zm-1.042-.864c-.004-.589-.146-1.046-.427-1.374-.277-.327-.663-.49-1.16-.49-.479 0-.886.171-1.22.515-.335.344-.542.794-.62 1.349h3.427Zm7.854 3.79h-1.426l-2.802-3.057h-.024v3.057h-1.017v-9.42h1.017v5.971h.024l2.666-2.914h1.332l-2.944 3.07 3.174 3.293Zm-83.496 4.239-2.184 7.75H6.916l-1.59-5.664a3.555 3.555 0 0 1-.124-.79H5.18a4.014 4.014 0 0 1-.14.779l-1.6 5.675H2.388l-2.265-7.75h.998l1.644 5.945a4 4 0 0 1 .13.778h.026a4.65 4.65 0 0 1 .167-.778l1.71-5.945h.867l1.64 5.988c.057.205.1.447.129.724h.021c.015-.187.063-.436.146-.746l1.58-5.966h.98Zm.701 7.55v-.951a2.612 2.612 0 0 0 1.59.535c.776 0 1.165-.26 1.165-.779a.65.65 0 0 0-.103-.373.934.934 0 0 0-.27-.275 1.883 1.883 0 0 0-.398-.21 12.35 12.35 0 0 0-.491-.2 7.056 7.056 0 0 1-.647-.293 2.134 2.134 0 0 1-.464-.335 1.332 1.332 0 0 1-.28-.427 1.544 1.544 0 0 1-.092-.556c0-.26.06-.489.178-.687.119-.202.277-.37.475-.502.197-.137.422-.24.674-.308.255-.069.517-.103.787-.103.478 0 .905.083 1.283.248v.898a2.495 2.495 0 0 0-1.402-.4c-.165 0-.314.02-.447.06a1.084 1.084 0 0 0-.345.156.767.767 0 0 0-.221.248.651.651 0 0 0-.076.314c0 .144.025.265.076.362a.826.826 0 0 0 .231.26c.101.075.223.144.367.205s.307.128.49.2c.245.093.464.19.658.292.194.097.36.209.496.335.137.122.241.264.313.427.075.162.113.355.113.578 0 .274-.06.512-.183.713-.119.202-.279.37-.48.503a2.209 2.209 0 0 1-.695.297 3.428 3.428 0 0 1-.825.098c-.568 0-1.06-.11-1.477-.33Zm5.93-.6h-.022v3.346h-.884v-8.08h.884v.972h.022c.435-.735 1.071-1.102 1.908-1.102.712 0 1.267.248 1.666.746.4.493.599 1.156.599 1.989 0 .925-.225 1.668-.674 2.226-.45.555-1.064.833-1.844.833-.715 0-1.267-.31-1.655-.93Zm-.022-2.232v.773c0 .457.148.846.442 1.167a1.49 1.49 0 0 0 1.133.476c.535 0 .954-.206 1.256-.616.305-.411.458-.982.458-1.714 0-.616-.142-1.099-.426-1.448-.284-.35-.668-.524-1.154-.524-.514 0-.927.18-1.24.54-.312.357-.469.805-.469 1.346Zm9.559 3.032h-.884v-.865h-.022c-.384.663-.95.995-1.698.995-.55 0-.981-.146-1.294-.438-.309-.292-.463-.68-.463-1.162 0-1.034.607-1.636 1.822-1.805l1.655-.233c0-.94-.38-1.41-1.138-1.41-.665 0-1.265.227-1.8.68v-.907c.542-.346 1.168-.52 1.876-.52 1.297 0 1.946.689 1.946 2.065v3.6Zm-.884-2.8-1.332.184c-.41.058-.719.16-.927.308-.209.144-.313.402-.313.773 0 .27.095.492.286.665.194.169.451.254.77.254.44 0 .8-.153 1.085-.46.287-.31.43-.7.43-1.172v-.552Zm5.429-1.837c-.155-.12-.378-.179-.669-.179-.377 0-.693.179-.949.535-.251.357-.377.843-.377 1.46v2.82h-.884V49.92h.884v1.14h.022c.125-.388.318-.69.576-.907.26-.22.548-.33.868-.33.23 0 .407.025.529.076v.919Zm4.722 4.382c-.424.257-.927.385-1.51.385-.786 0-1.422-.256-1.908-.768-.481-.515-.722-1.182-.722-2 0-.911.26-1.643.782-2.194.52-.555 1.216-.832 2.086-.832.485 0 .913.09 1.283.27v.908a2.244 2.244 0 0 0-1.315-.432c-.565 0-1.028.203-1.391.61-.36.404-.54.935-.54 1.595 0 .648.17 1.16.508 1.535.34.374.797.562 1.369.562.482 0 .934-.16 1.358-.481v.843Zm1.79-6.685a.56.56 0 0 1-.571-.573c0-.165.056-.302.167-.41a.55.55 0 0 1 .404-.168c.162 0 .299.056.41.168a.54.54 0 0 1 .173.41.544.544 0 0 1-.173.406.557.557 0 0 1-.41.167Zm.432 6.94h-.885V49.92h.885v5.535Zm5.741 0h-.884v-.865h-.022c-.384.663-.95.995-1.698.995-.55 0-.98-.146-1.294-.438-.309-.292-.463-.68-.463-1.162 0-1.034.607-1.636 1.822-1.805l1.655-.233c0-.94-.38-1.41-1.137-1.41-.665 0-1.266.227-1.801.68v-.907c.543-.346 1.168-.52 1.876-.52 1.297 0 1.946.689 1.946 2.065v3.6Zm-.884-2.8-1.332.184c-.41.058-.718.16-.927.308-.208.144-.313.402-.313.773 0 .27.096.492.286.665.194.169.451.254.771.254.439 0 .8-.153 1.084-.46.287-.31.431-.7.431-1.172v-.552Zm11.241 2.8h-1.078l-1.294-2.173a4.516 4.516 0 0 0-.345-.513 1.884 1.884 0 0 0-.345-.352 1.109 1.109 0 0 0-.378-.194 1.46 1.46 0 0 0-.453-.065h-.744v3.297h-.905v-7.75h2.307c.338 0 .649.043.933.13.287.082.535.21.744.383.212.173.377.39.496.649.118.255.178.556.178.902 0 .27-.042.519-.124.746a1.88 1.88 0 0 1-.345.6 2.078 2.078 0 0 1-.54.454 2.765 2.765 0 0 1-.706.286v.022a1.708 1.708 0 0 1 .609.46c.087.1.171.215.254.345.086.126.181.274.286.443l1.45 2.33Zm-4.637-6.929v2.81h1.23c.226 0 .434-.034.625-.102a1.48 1.48 0 0 0 .501-.292c.14-.13.25-.286.33-.47a1.6 1.6 0 0 0 .118-.627c0-.414-.135-.737-.405-.968-.266-.234-.652-.35-1.159-.35h-1.24Zm7.893 7.059c-.816 0-1.468-.258-1.957-.773-.485-.52-.728-1.206-.728-2.06 0-.93.254-1.655.76-2.178.507-.522 1.192-.783 2.055-.783.823 0 1.464.254 1.924.762.464.508.696 1.212.696 2.113 0 .883-.25 1.59-.75 2.124-.496.53-1.163.795-2 .795Zm.065-5.048c-.568 0-1.017.194-1.348.583-.33.386-.496.92-.496 1.6 0 .656.167 1.173.501 1.551.335.379.782.568 1.343.568.571 0 1.01-.186 1.315-.557.31-.371.464-.899.464-1.583 0-.692-.155-1.226-.464-1.6-.305-.375-.744-.562-1.315-.562Zm4.982 4.918h-.885V47.26h.884v8.194Zm6.372 0h-.885v-3.157c0-1.174-.427-1.761-1.283-1.761-.442 0-.808.167-1.1.502-.287.332-.43.752-.43 1.26v3.156h-.885V49.92h.884v.92h.022c.417-.7 1.02-1.05 1.811-1.05.604 0 1.066.197 1.386.59.32.389.48.953.48 1.691v3.384Zm2.124-6.94a.56.56 0 0 1-.572-.573c0-.165.056-.302.167-.41a.55.55 0 0 1 .405-.168c.162 0 .298.056.41.168a.54.54 0 0 1 .172.41.544.544 0 0 1-.172.406.556.556 0 0 1-.41.167Zm.431 6.94h-.884V49.92h.884v5.535ZM76.7 55.2c-.424.257-.927.385-1.51.385-.787 0-1.423-.256-1.908-.768-.482-.515-.722-1.182-.722-2 0-.911.26-1.643.781-2.194.521-.555 1.217-.832 2.087-.832.485 0 .913.09 1.283.27v.908a2.244 2.244 0 0 0-1.316-.432c-.564 0-1.028.203-1.39.61-.36.404-.54.935-.54 1.595 0 .648.17 1.16.507 1.535.342.374.798.562 1.37.562.481 0 .934-.16 1.358-.481v.843Zm3.898.2c-.209.116-.483.174-.825.174-.967 0-1.45-.54-1.45-1.622v-3.275h-.95v-.757h.95v-1.35l.884-.287v1.637h1.39v.757h-1.39v3.119c0 .37.063.636.189.794.125.159.334.238.625.238a.928.928 0 0 0 .577-.184v.757Zm8.135-5.48-1.655 5.535h-.916l-1.138-3.962a2.583 2.583 0 0 1-.086-.513h-.022c-.01.13-.048.297-.113.502l-1.235 3.973h-.884l-1.671-5.535h.927l1.143 4.162c.036.126.061.292.076.497h.043c.01-.158.043-.328.097-.508l1.272-4.15h.809l1.143 4.172c.036.133.063.299.08.497h.044c.007-.14.037-.306.091-.497l1.122-4.173h.873Zm4.977 5.535h-.885v-.865h-.021c-.385.663-.951.995-1.699.995-.55 0-.98-.146-1.294-.438-.309-.292-.463-.68-.463-1.162 0-1.034.607-1.636 1.822-1.805l1.655-.233c0-.94-.38-1.41-1.137-1.41-.665 0-1.266.227-1.801.68v-.907c.543-.346 1.168-.52 1.876-.52 1.297 0 1.946.689 1.946 2.065v3.6Zm-.885-2.8-1.332.184c-.41.058-.718.16-.927.308-.208.144-.313.402-.313.773 0 .27.096.492.286.665.194.169.451.254.771.254.439 0 .8-.153 1.084-.46.287-.31.431-.7.431-1.172v-.552Z"/>
  </mask>
  <path fill="#fff" d="M6.223 43.466h-1.45L1.339 39.39a2.481 2.481 0 0 1-.236-.311h-.025v4.387H.038v-8.91h1.04v4.188h.025c.058-.092.137-.193.236-.305l3.322-3.884h1.296l-3.812 4.276 4.078 4.635Zm4.351-5.331c-.177-.137-.434-.206-.768-.206-.434 0-.798.206-1.091.616-.29.41-.434.969-.434 1.677v3.244H7.264v-6.363h1.017v1.311h.025c.144-.447.365-.795.663-1.044.298-.252.63-.379.998-.379.264 0 .467.03.607.087v1.056Zm5.647 5.331h-1.016v-.994h-.025c-.442.762-1.093 1.143-1.953 1.143-.632 0-1.128-.168-1.487-.503-.356-.336-.533-.781-.533-1.336 0-1.19.698-1.88 2.095-2.076l1.903-.267c0-1.081-.436-1.622-1.308-1.622-.765 0-1.455.261-2.07.783V37.55c.623-.397 1.342-.596 2.156-.596 1.492 0 2.238.791 2.238 2.374v4.138Zm-1.016-3.219-1.531.212c-.471.066-.827.184-1.066.354-.24.165-.36.462-.36.888 0 .311.11.566.329.765.223.194.518.292.886.292.504 0 .92-.176 1.246-.529.33-.356.496-.805.496-1.348v-.634Zm3.948 2.952c0 1.044-.21 1.847-.632 2.41-.418.568-1.017.852-1.798.852-.289 0-.57-.066-.843-.199v-.95c.306.186.595.28.868.28.926 0 1.389-.742 1.389-2.225v-6.264h1.016v6.096Zm-.496-7.712A.643.643 0 0 1 18 34.83a.63.63 0 0 1 .192-.473.633.633 0 0 1 .465-.192.64.64 0 0 1 .471.192.62.62 0 0 1 .198.473.626.626 0 0 1-.198.466.64.64 0 0 1-.47.192Zm5.207 8.128c-.938 0-1.688-.296-2.25-.888-.558-.597-.837-1.386-.837-2.368 0-1.069.291-1.903.874-2.504.583-.6 1.37-.901 2.361-.901.947 0 1.684.292 2.213.876.533.584.8 1.394.8 2.43 0 1.015-.287 1.829-.862 2.442-.57.609-1.336.913-2.3.913Zm.074-5.804c-.653 0-1.17.224-1.55.672-.38.443-.57 1.056-.57 1.839 0 .754.192 1.348.577 1.783.384.435.899.653 1.543.653.657 0 1.161-.214 1.513-.64.355-.427.533-1.034.533-1.821 0-.795-.178-1.408-.533-1.84-.352-.43-.856-.646-1.513-.646Zm12.707-.708-1.903 6.363h-1.054l-1.308-4.555a2.972 2.972 0 0 1-.099-.59h-.025c-.012.15-.055.342-.13.578l-1.42 4.567H29.69l-1.921-6.363h1.066l1.314 4.785c.041.145.07.335.087.571h.05c.012-.182.049-.377.11-.584l1.464-4.772h.93l1.313 4.797c.042.153.073.344.093.572h.05c.008-.162.043-.352.105-.572l1.29-4.797h1.004Zm6.229 0-2.92 7.382c-.52 1.317-1.251 1.976-2.193 1.976-.265 0-.486-.027-.664-.08v-.914c.22.075.42.112.602.112.512 0 .896-.307 1.153-.92l.508-1.205-2.48-6.351h1.128l1.717 4.896c.021.063.065.224.13.485h.038c.02-.1.062-.257.124-.472l1.804-4.909h1.053Zm8.3 6.512c-1.26 0-2.27-.416-3.031-1.249-.756-.833-1.134-1.916-1.134-3.25 0-1.433.386-2.576 1.159-3.43.773-.853 1.824-1.28 3.155-1.28 1.227 0 2.215.415 2.963 1.243.752.828 1.128 1.912 1.128 3.25 0 1.454-.385 2.603-1.153 3.448-.769.846-1.798 1.268-3.087 1.268Zm.074-8.264c-.934 0-1.692.337-2.274 1.013-.583.675-.874 1.561-.874 2.66 0 1.097.283 1.981.849 2.652.57.667 1.312 1 2.225 1 .975 0 1.744-.318 2.306-.956.562-.638.843-1.53.843-2.678 0-1.177-.273-2.086-.818-2.728-.546-.642-1.298-.963-2.257-.963Zm5.392 7.885v-1.093a3.01 3.01 0 0 0 1.83.615c.892 0 1.338-.299 1.338-.895a.752.752 0 0 0-.117-.429 1.071 1.071 0 0 0-.31-.317 2.167 2.167 0 0 0-.459-.242 17.605 17.605 0 0 0-.564-.23 8.146 8.146 0 0 1-.744-.336 2.457 2.457 0 0 1-.533-.385 1.532 1.532 0 0 1-.322-.49 1.776 1.776 0 0 1-.106-.64c0-.3.069-.562.205-.79a1.77 1.77 0 0 1 .545-.578 2.53 2.53 0 0 1 .775-.354c.294-.079.595-.118.905-.118.55 0 1.041.095 1.475.286v1.031c-.467-.306-1.004-.46-1.611-.46-.19 0-.362.023-.515.069a1.248 1.248 0 0 0-.396.18.88.88 0 0 0-.255.286.749.749 0 0 0-.086.36c0 .166.029.305.087.416a.95.95 0 0 0 .266.299c.116.087.256.166.421.236.166.07.354.147.564.23.282.108.534.22.757.335.223.112.413.24.57.386.157.14.277.304.36.49.086.187.13.409.13.665 0 .315-.07.589-.211.82a1.75 1.75 0 0 1-.552.578 2.538 2.538 0 0 1-.8.342 3.937 3.937 0 0 1-.948.112c-.653 0-1.219-.126-1.698-.379Zm3.782-9.377-1.624 2.038h-.787l1.382-2.038h1.029Zm5.306 4.276c-.178-.137-.434-.206-.769-.206-.434 0-.797.206-1.09.616-.29.41-.435.969-.435 1.677v3.244h-1.016v-6.363h1.016v1.311h.025c.145-.447.366-.795.663-1.044.298-.252.63-.379.998-.379.265 0 .467.03.608.087v1.056Zm3.756 5.48c-.938 0-1.688-.296-2.25-.888-.558-.597-.837-1.386-.837-2.368 0-1.069.292-1.903.874-2.504.583-.6 1.37-.901 2.362-.901.946 0 1.684.292 2.213.876.533.584.8 1.394.8 2.43 0 1.015-.288 1.829-.862 2.442-.57.609-1.337.913-2.3.913Zm.074-5.804c-.653 0-1.169.224-1.55.672-.38.443-.57 1.056-.57 1.839 0 .754.193 1.348.577 1.783.384.435.899.653 1.543.653.657 0 1.162-.214 1.513-.64.355-.427.533-1.034.533-1.821 0-.795-.178-1.408-.533-1.84-.351-.43-.855-.646-1.513-.646Zm10.129 5.655H78.67v-1.081h-.025c-.47.82-1.198 1.23-2.182 1.23-.797 0-1.435-.284-1.915-.851-.475-.572-.713-1.349-.713-2.33 0-1.053.265-1.896.794-2.53.529-.633 1.233-.95 2.113-.95.872 0 1.507.344 1.903 1.031h.025v-3.94h1.017v9.421Zm-1.017-2.877v-.938c0-.514-.17-.949-.508-1.305-.339-.356-.769-.535-1.29-.535-.62 0-1.107.228-1.462.684-.356.456-.533 1.085-.533 1.889 0 .733.17 1.313.508 1.74.343.422.802.634 1.376.634.566 0 1.025-.205 1.376-.616.355-.41.533-.928.533-1.553Zm8.176-.049h-4.482c.017.708.207 1.255.57 1.64.364.385.864.578 1.5.578.716 0 1.373-.236 1.972-.709v.957c-.558.406-1.296.61-2.213.61-.897 0-1.601-.289-2.114-.865-.512-.58-.768-1.394-.768-2.442 0-.99.278-1.795.836-2.417.562-.625 1.259-.938 2.09-.938.83 0 1.472.27 1.927.808.454.538.682 1.286.682 2.243v.534Zm-1.042-.864c-.004-.589-.146-1.046-.427-1.374-.277-.327-.663-.49-1.16-.49-.479 0-.886.171-1.22.515-.335.344-.542.794-.62 1.349h3.427Zm7.854 3.79h-1.426l-2.802-3.057h-.024v3.057h-1.017v-9.42h1.017v5.971h.024l2.666-2.914h1.332l-2.944 3.07 3.174 3.293Zm-83.496 4.239-2.184 7.75H6.916l-1.59-5.664a3.555 3.555 0 0 1-.124-.79H5.18a4.014 4.014 0 0 1-.14.779l-1.6 5.675H2.388l-2.265-7.75h.998l1.644 5.945a4 4 0 0 1 .13.778h.026a4.65 4.65 0 0 1 .167-.778l1.71-5.945h.867l1.64 5.988c.057.205.1.447.129.724h.021c.015-.187.063-.436.146-.746l1.58-5.966h.98Zm.701 7.55v-.951a2.612 2.612 0 0 0 1.59.535c.776 0 1.165-.26 1.165-.779a.65.65 0 0 0-.103-.373.934.934 0 0 0-.27-.275 1.883 1.883 0 0 0-.398-.21 12.35 12.35 0 0 0-.491-.2 7.056 7.056 0 0 1-.647-.293 2.134 2.134 0 0 1-.464-.335 1.332 1.332 0 0 1-.28-.427 1.544 1.544 0 0 1-.092-.556c0-.26.06-.489.178-.687.119-.202.277-.37.475-.502.197-.137.422-.24.674-.308.255-.069.517-.103.787-.103.478 0 .905.083 1.283.248v.898a2.495 2.495 0 0 0-1.402-.4c-.165 0-.314.02-.447.06a1.084 1.084 0 0 0-.345.156.767.767 0 0 0-.221.248.651.651 0 0 0-.076.314c0 .144.025.265.076.362a.826.826 0 0 0 .231.26c.101.075.223.144.367.205s.307.128.49.2c.245.093.464.19.658.292.194.097.36.209.496.335.137.122.241.264.313.427.075.162.113.355.113.578 0 .274-.06.512-.183.713-.119.202-.279.37-.48.503a2.209 2.209 0 0 1-.695.297 3.428 3.428 0 0 1-.825.098c-.568 0-1.06-.11-1.477-.33Zm5.93-.6h-.022v3.346h-.884v-8.08h.884v.972h.022c.435-.735 1.071-1.102 1.908-1.102.712 0 1.267.248 1.666.746.4.493.599 1.156.599 1.989 0 .925-.225 1.668-.674 2.226-.45.555-1.064.833-1.844.833-.715 0-1.267-.31-1.655-.93Zm-.022-2.232v.773c0 .457.148.846.442 1.167a1.49 1.49 0 0 0 1.133.476c.535 0 .954-.206 1.256-.616.305-.411.458-.982.458-1.714 0-.616-.142-1.099-.426-1.448-.284-.35-.668-.524-1.154-.524-.514 0-.927.18-1.24.54-.312.357-.469.805-.469 1.346Zm9.559 3.032h-.884v-.865h-.022c-.384.663-.95.995-1.698.995-.55 0-.981-.146-1.294-.438-.309-.292-.463-.68-.463-1.162 0-1.034.607-1.636 1.822-1.805l1.655-.233c0-.94-.38-1.41-1.138-1.41-.665 0-1.265.227-1.8.68v-.907c.542-.346 1.168-.52 1.876-.52 1.297 0 1.946.689 1.946 2.065v3.6Zm-.884-2.8-1.332.184c-.41.058-.719.16-.927.308-.209.144-.313.402-.313.773 0 .27.095.492.286.665.194.169.451.254.77.254.44 0 .8-.153 1.085-.46.287-.31.43-.7.43-1.172v-.552Zm5.429-1.837c-.155-.12-.378-.179-.669-.179-.377 0-.693.179-.949.535-.251.357-.377.843-.377 1.46v2.82h-.884V49.92h.884v1.14h.022c.125-.388.318-.69.576-.907.26-.22.548-.33.868-.33.23 0 .407.025.529.076v.919Zm4.722 4.382c-.424.257-.927.385-1.51.385-.786 0-1.422-.256-1.908-.768-.481-.515-.722-1.182-.722-2 0-.911.26-1.643.782-2.194.52-.555 1.216-.832 2.086-.832.485 0 .913.09 1.283.27v.908a2.244 2.244 0 0 0-1.315-.432c-.565 0-1.028.203-1.391.61-.36.404-.54.935-.54 1.595 0 .648.17 1.16.508 1.535.34.374.797.562 1.369.562.482 0 .934-.16 1.358-.481v.843Zm1.79-6.685a.56.56 0 0 1-.571-.573c0-.165.056-.302.167-.41a.55.55 0 0 1 .404-.168c.162 0 .299.056.41.168a.54.54 0 0 1 .173.41.544.544 0 0 1-.173.406.557.557 0 0 1-.41.167Zm.432 6.94h-.885V49.92h.885v5.535Zm5.741 0h-.884v-.865h-.022c-.384.663-.95.995-1.698.995-.55 0-.98-.146-1.294-.438-.309-.292-.463-.68-.463-1.162 0-1.034.607-1.636 1.822-1.805l1.655-.233c0-.94-.38-1.41-1.137-1.41-.665 0-1.266.227-1.801.68v-.907c.543-.346 1.168-.52 1.876-.52 1.297 0 1.946.689 1.946 2.065v3.6Zm-.884-2.8-1.332.184c-.41.058-.718.16-.927.308-.208.144-.313.402-.313.773 0 .27.096.492.286.665.194.169.451.254.771.254.439 0 .8-.153 1.084-.46.287-.31.431-.7.431-1.172v-.552Zm11.241 2.8h-1.078l-1.294-2.173a4.516 4.516 0 0 0-.345-.513 1.884 1.884 0 0 0-.345-.352 1.109 1.109 0 0 0-.378-.194 1.46 1.46 0 0 0-.453-.065h-.744v3.297h-.905v-7.75h2.307c.338 0 .649.043.933.13.287.082.535.21.744.383.212.173.377.39.496.649.118.255.178.556.178.902 0 .27-.042.519-.124.746a1.88 1.88 0 0 1-.345.6 2.078 2.078 0 0 1-.54.454 2.765 2.765 0 0 1-.706.286v.022a1.708 1.708 0 0 1 .609.46c.087.1.171.215.254.345.086.126.181.274.286.443l1.45 2.33Zm-4.637-6.929v2.81h1.23c.226 0 .434-.034.625-.102a1.48 1.48 0 0 0 .501-.292c.14-.13.25-.286.33-.47a1.6 1.6 0 0 0 .118-.627c0-.414-.135-.737-.405-.968-.266-.234-.652-.35-1.159-.35h-1.24Zm7.893 7.059c-.816 0-1.468-.258-1.957-.773-.485-.52-.728-1.206-.728-2.06 0-.93.254-1.655.76-2.178.507-.522 1.192-.783 2.055-.783.823 0 1.464.254 1.924.762.464.508.696 1.212.696 2.113 0 .883-.25 1.59-.75 2.124-.496.53-1.163.795-2 .795Zm.065-5.048c-.568 0-1.017.194-1.348.583-.33.386-.496.92-.496 1.6 0 .656.167 1.173.501 1.551.335.379.782.568 1.343.568.571 0 1.01-.186 1.315-.557.31-.371.464-.899.464-1.583 0-.692-.155-1.226-.464-1.6-.305-.375-.744-.562-1.315-.562Zm4.982 4.918h-.885V47.26h.884v8.194Zm6.372 0h-.885v-3.157c0-1.174-.427-1.761-1.283-1.761-.442 0-.808.167-1.1.502-.287.332-.43.752-.43 1.26v3.156h-.885V49.92h.884v.92h.022c.417-.7 1.02-1.05 1.811-1.05.604 0 1.066.197 1.386.59.32.389.48.953.48 1.691v3.384Zm2.124-6.94a.56.56 0 0 1-.572-.573c0-.165.056-.302.167-.41a.55.55 0 0 1 .405-.168c.162 0 .298.056.41.168a.54.54 0 0 1 .172.41.544.544 0 0 1-.172.406.556.556 0 0 1-.41.167Zm.431 6.94h-.884V49.92h.884v5.535ZM76.7 55.2c-.424.257-.927.385-1.51.385-.787 0-1.423-.256-1.908-.768-.482-.515-.722-1.182-.722-2 0-.911.26-1.643.781-2.194.521-.555 1.217-.832 2.087-.832.485 0 .913.09 1.283.27v.908a2.244 2.244 0 0 0-1.316-.432c-.564 0-1.028.203-1.39.61-.36.404-.54.935-.54 1.595 0 .648.17 1.16.507 1.535.342.374.798.562 1.37.562.481 0 .934-.16 1.358-.481v.843Zm3.898.2c-.209.116-.483.174-.825.174-.967 0-1.45-.54-1.45-1.622v-3.275h-.95v-.757h.95v-1.35l.884-.287v1.637h1.39v.757h-1.39v3.119c0 .37.063.636.189.794.125.159.334.238.625.238a.928.928 0 0 0 .577-.184v.757Zm8.135-5.48-1.655 5.535h-.916l-1.138-3.962a2.583 2.583 0 0 1-.086-.513h-.022c-.01.13-.048.297-.113.502l-1.235 3.973h-.884l-1.671-5.535h.927l1.143 4.162c.036.126.061.292.076.497h.043c.01-.158.043-.328.097-.508l1.272-4.15h.809l1.143 4.172c.036.133.063.299.08.497h.044c.007-.14.037-.306.091-.497l1.122-4.173h.873Zm4.977 5.535h-.885v-.865h-.021c-.385.663-.951.995-1.699.995-.55 0-.98-.146-1.294-.438-.309-.292-.463-.68-.463-1.162 0-1.034.607-1.636 1.822-1.805l1.655-.233c0-.94-.38-1.41-1.137-1.41-.665 0-1.266.227-1.801.68v-.907c.543-.346 1.168-.52 1.876-.52 1.297 0 1.946.689 1.946 2.065v3.6Zm-.885-2.8-1.332.184c-.41.058-.718.16-.927.308-.208.144-.313.402-.313.773 0 .27.096.492.286.665.194.169.451.254.771.254.439 0 .8-.153 1.084-.46.287-.31.431-.7.431-1.172v-.552Z"/>
  <path stroke="#fff" stroke-width="4" d="M6.223 43.466h-1.45L1.339 39.39a2.481 2.481 0 0 1-.236-.311h-.025v4.387H.038v-8.91h1.04v4.188h.025c.058-.092.137-.193.236-.305l3.322-3.884h1.296l-3.812 4.276 4.078 4.635Zm4.351-5.331c-.177-.137-.434-.206-.768-.206-.434 0-.798.206-1.091.616-.29.41-.434.969-.434 1.677v3.244H7.264v-6.363h1.017v1.311h.025c.144-.447.365-.795.663-1.044.298-.252.63-.379.998-.379.264 0 .467.03.607.087v1.056Zm5.647 5.331h-1.016v-.994h-.025c-.442.762-1.093 1.143-1.953 1.143-.632 0-1.128-.168-1.487-.503-.356-.336-.533-.781-.533-1.336 0-1.19.698-1.88 2.095-2.076l1.903-.267c0-1.081-.436-1.622-1.308-1.622-.765 0-1.455.261-2.07.783V37.55c.623-.397 1.342-.596 2.156-.596 1.492 0 2.238.791 2.238 2.374v4.138Zm-1.016-3.219-1.531.212c-.471.066-.827.184-1.066.354-.24.165-.36.462-.36.888 0 .311.11.566.329.765.223.194.518.292.886.292.504 0 .92-.176 1.246-.529.33-.356.496-.805.496-1.348v-.634Zm3.948 2.952c0 1.044-.21 1.847-.632 2.41-.418.568-1.017.852-1.798.852-.289 0-.57-.066-.843-.199v-.95c.306.186.595.28.868.28.926 0 1.389-.742 1.389-2.225v-6.264h1.016v6.096Zm-.496-7.712A.643.643 0 0 1 18 34.83a.63.63 0 0 1 .192-.473.633.633 0 0 1 .465-.192.64.64 0 0 1 .471.192.62.62 0 0 1 .198.473.626.626 0 0 1-.198.466.64.64 0 0 1-.47.192Zm5.207 8.128c-.938 0-1.688-.296-2.25-.888-.558-.597-.837-1.386-.837-2.368 0-1.069.291-1.903.874-2.504.583-.6 1.37-.901 2.361-.901.947 0 1.684.292 2.213.876.533.584.8 1.394.8 2.43 0 1.015-.287 1.829-.862 2.442-.57.609-1.336.913-2.3.913Zm.074-5.804c-.653 0-1.17.224-1.55.672-.38.443-.57 1.056-.57 1.839 0 .754.192 1.348.577 1.783.384.435.899.653 1.543.653.657 0 1.161-.214 1.513-.64.355-.427.533-1.034.533-1.821 0-.795-.178-1.408-.533-1.84-.352-.43-.856-.646-1.513-.646Zm12.707-.708-1.903 6.363h-1.054l-1.308-4.555a2.972 2.972 0 0 1-.099-.59h-.025c-.012.15-.055.342-.13.578l-1.42 4.567H29.69l-1.921-6.363h1.066l1.314 4.785c.041.145.07.335.087.571h.05c.012-.182.049-.377.11-.584l1.464-4.772h.93l1.313 4.797c.042.153.073.344.093.572h.05c.008-.162.043-.352.105-.572l1.29-4.797h1.004Zm6.229 0-2.92 7.382c-.52 1.317-1.251 1.976-2.193 1.976-.265 0-.486-.027-.664-.08v-.914c.22.075.42.112.602.112.512 0 .896-.307 1.153-.92l.508-1.205-2.48-6.351h1.128l1.717 4.896c.021.063.065.224.13.485h.038c.02-.1.062-.257.124-.472l1.804-4.909h1.053Zm8.3 6.512c-1.26 0-2.27-.416-3.031-1.249-.756-.833-1.134-1.916-1.134-3.25 0-1.433.386-2.576 1.159-3.43.773-.853 1.824-1.28 3.155-1.28 1.227 0 2.215.415 2.963 1.243.752.828 1.128 1.912 1.128 3.25 0 1.454-.385 2.603-1.153 3.448-.769.846-1.798 1.268-3.087 1.268Zm.074-8.264c-.934 0-1.692.337-2.274 1.013-.583.675-.874 1.561-.874 2.66 0 1.097.283 1.981.849 2.652.57.667 1.312 1 2.225 1 .975 0 1.744-.318 2.306-.956.562-.638.843-1.53.843-2.678 0-1.177-.273-2.086-.818-2.728-.546-.642-1.298-.963-2.257-.963Zm5.392 7.885v-1.093a3.01 3.01 0 0 0 1.83.615c.892 0 1.338-.299 1.338-.895a.752.752 0 0 0-.117-.429 1.071 1.071 0 0 0-.31-.317 2.167 2.167 0 0 0-.459-.242 17.605 17.605 0 0 0-.564-.23 8.146 8.146 0 0 1-.744-.336 2.457 2.457 0 0 1-.533-.385 1.532 1.532 0 0 1-.322-.49 1.776 1.776 0 0 1-.106-.64c0-.3.069-.562.205-.79a1.77 1.77 0 0 1 .545-.578 2.53 2.53 0 0 1 .775-.354c.294-.079.595-.118.905-.118.55 0 1.041.095 1.475.286v1.031c-.467-.306-1.004-.46-1.611-.46-.19 0-.362.023-.515.069a1.248 1.248 0 0 0-.396.18.88.88 0 0 0-.255.286.749.749 0 0 0-.086.36c0 .166.029.305.087.416a.95.95 0 0 0 .266.299c.116.087.256.166.421.236.166.07.354.147.564.23.282.108.534.22.757.335.223.112.413.24.57.386.157.14.277.304.36.49.086.187.13.409.13.665 0 .315-.07.589-.211.82a1.75 1.75 0 0 1-.552.578 2.538 2.538 0 0 1-.8.342 3.937 3.937 0 0 1-.948.112c-.653 0-1.219-.126-1.698-.379Zm3.782-9.377-1.624 2.038h-.787l1.382-2.038h1.029Zm5.306 4.276c-.178-.137-.434-.206-.769-.206-.434 0-.797.206-1.09.616-.29.41-.435.969-.435 1.677v3.244h-1.016v-6.363h1.016v1.311h.025c.145-.447.366-.795.663-1.044.298-.252.63-.379.998-.379.265 0 .467.03.608.087v1.056Zm3.756 5.48c-.938 0-1.688-.296-2.25-.888-.558-.597-.837-1.386-.837-2.368 0-1.069.292-1.903.874-2.504.583-.6 1.37-.901 2.362-.901.946 0 1.684.292 2.213.876.533.584.8 1.394.8 2.43 0 1.015-.288 1.829-.862 2.442-.57.609-1.337.913-2.3.913Zm.074-5.804c-.653 0-1.169.224-1.55.672-.38.443-.57 1.056-.57 1.839 0 .754.193 1.348.577 1.783.384.435.899.653 1.543.653.657 0 1.162-.214 1.513-.64.355-.427.533-1.034.533-1.821 0-.795-.178-1.408-.533-1.84-.351-.43-.855-.646-1.513-.646Zm10.129 5.655H78.67v-1.081h-.025c-.47.82-1.198 1.23-2.182 1.23-.797 0-1.435-.284-1.915-.851-.475-.572-.713-1.349-.713-2.33 0-1.053.265-1.896.794-2.53.529-.633 1.233-.95 2.113-.95.872 0 1.507.344 1.903 1.031h.025v-3.94h1.017v9.421Zm-1.017-2.877v-.938c0-.514-.17-.949-.508-1.305-.339-.356-.769-.535-1.29-.535-.62 0-1.107.228-1.462.684-.356.456-.533 1.085-.533 1.889 0 .733.17 1.313.508 1.74.343.422.802.634 1.376.634.566 0 1.025-.205 1.376-.616.355-.41.533-.928.533-1.553Zm8.176-.049h-4.482c.017.708.207 1.255.57 1.64.364.385.864.578 1.5.578.716 0 1.373-.236 1.972-.709v.957c-.558.406-1.296.61-2.213.61-.897 0-1.601-.289-2.114-.865-.512-.58-.768-1.394-.768-2.442 0-.99.278-1.795.836-2.417.562-.625 1.259-.938 2.09-.938.83 0 1.472.27 1.927.808.454.538.682 1.286.682 2.243v.534Zm-1.042-.864c-.004-.589-.146-1.046-.427-1.374-.277-.327-.663-.49-1.16-.49-.479 0-.886.171-1.22.515-.335.344-.542.794-.62 1.349h3.427Zm7.854 3.79h-1.426l-2.802-3.057h-.024v3.057h-1.017v-9.42h1.017v5.971h.024l2.666-2.914h1.332l-2.944 3.07 3.174 3.293Zm-83.496 4.239-2.184 7.75H6.916l-1.59-5.664a3.555 3.555 0 0 1-.124-.79H5.18a4.014 4.014 0 0 1-.14.779l-1.6 5.675H2.388l-2.265-7.75h.998l1.644 5.945a4 4 0 0 1 .13.778h.026a4.65 4.65 0 0 1 .167-.778l1.71-5.945h.867l1.64 5.988c.057.205.1.447.129.724h.021c.015-.187.063-.436.146-.746l1.58-5.966h.98Zm.701 7.55v-.951a2.612 2.612 0 0 0 1.59.535c.776 0 1.165-.26 1.165-.779a.65.65 0 0 0-.103-.373.934.934 0 0 0-.27-.275 1.883 1.883 0 0 0-.398-.21 12.35 12.35 0 0 0-.491-.2 7.056 7.056 0 0 1-.647-.293 2.134 2.134 0 0 1-.464-.335 1.332 1.332 0 0 1-.28-.427 1.544 1.544 0 0 1-.092-.556c0-.26.06-.489.178-.687.119-.202.277-.37.475-.502.197-.137.422-.24.674-.308.255-.069.517-.103.787-.103.478 0 .905.083 1.283.248v.898a2.495 2.495 0 0 0-1.402-.4c-.165 0-.314.02-.447.06a1.084 1.084 0 0 0-.345.156.767.767 0 0 0-.221.248.651.651 0 0 0-.076.314c0 .144.025.265.076.362a.826.826 0 0 0 .231.26c.101.075.223.144.367.205s.307.128.49.2c.245.093.464.19.658.292.194.097.36.209.496.335.137.122.241.264.313.427.075.162.113.355.113.578 0 .274-.06.512-.183.713-.119.202-.279.37-.48.503a2.209 2.209 0 0 1-.695.297 3.428 3.428 0 0 1-.825.098c-.568 0-1.06-.11-1.477-.33Zm5.93-.6h-.022v3.346h-.884v-8.08h.884v.972h.022c.435-.735 1.071-1.102 1.908-1.102.712 0 1.267.248 1.666.746.4.493.599 1.156.599 1.989 0 .925-.225 1.668-.674 2.226-.45.555-1.064.833-1.844.833-.715 0-1.267-.31-1.655-.93Zm-.022-2.232v.773c0 .457.148.846.442 1.167a1.49 1.49 0 0 0 1.133.476c.535 0 .954-.206 1.256-.616.305-.411.458-.982.458-1.714 0-.616-.142-1.099-.426-1.448-.284-.35-.668-.524-1.154-.524-.514 0-.927.18-1.24.54-.312.357-.469.805-.469 1.346Zm9.559 3.032h-.884v-.865h-.022c-.384.663-.95.995-1.698.995-.55 0-.981-.146-1.294-.438-.309-.292-.463-.68-.463-1.162 0-1.034.607-1.636 1.822-1.805l1.655-.233c0-.94-.38-1.41-1.138-1.41-.665 0-1.265.227-1.8.68v-.907c.542-.346 1.168-.52 1.876-.52 1.297 0 1.946.689 1.946 2.065v3.6Zm-.884-2.8-1.332.184c-.41.058-.719.16-.927.308-.209.144-.313.402-.313.773 0 .27.095.492.286.665.194.169.451.254.77.254.44 0 .8-.153 1.085-.46.287-.31.43-.7.43-1.172v-.552Zm5.429-1.837c-.155-.12-.378-.179-.669-.179-.377 0-.693.179-.949.535-.251.357-.377.843-.377 1.46v2.82h-.884V49.92h.884v1.14h.022c.125-.388.318-.69.576-.907.26-.22.548-.33.868-.33.23 0 .407.025.529.076v.919Zm4.722 4.382c-.424.257-.927.385-1.51.385-.786 0-1.422-.256-1.908-.768-.481-.515-.722-1.182-.722-2 0-.911.26-1.643.782-2.194.52-.555 1.216-.832 2.086-.832.485 0 .913.09 1.283.27v.908a2.244 2.244 0 0 0-1.315-.432c-.565 0-1.028.203-1.391.61-.36.404-.54.935-.54 1.595 0 .648.17 1.16.508 1.535.34.374.797.562 1.369.562.482 0 .934-.16 1.358-.481v.843Zm1.79-6.685a.56.56 0 0 1-.571-.573c0-.165.056-.302.167-.41a.55.55 0 0 1 .404-.168c.162 0 .299.056.41.168a.54.54 0 0 1 .173.41.544.544 0 0 1-.173.406.557.557 0 0 1-.41.167Zm.432 6.94h-.885V49.92h.885v5.535Zm5.741 0h-.884v-.865h-.022c-.384.663-.95.995-1.698.995-.55 0-.98-.146-1.294-.438-.309-.292-.463-.68-.463-1.162 0-1.034.607-1.636 1.822-1.805l1.655-.233c0-.94-.38-1.41-1.137-1.41-.665 0-1.266.227-1.801.68v-.907c.543-.346 1.168-.52 1.876-.52 1.297 0 1.946.689 1.946 2.065v3.6Zm-.884-2.8-1.332.184c-.41.058-.718.16-.927.308-.208.144-.313.402-.313.773 0 .27.096.492.286.665.194.169.451.254.771.254.439 0 .8-.153 1.084-.46.287-.31.431-.7.431-1.172v-.552Zm11.241 2.8h-1.078l-1.294-2.173a4.516 4.516 0 0 0-.345-.513 1.884 1.884 0 0 0-.345-.352 1.109 1.109 0 0 0-.378-.194 1.46 1.46 0 0 0-.453-.065h-.744v3.297h-.905v-7.75h2.307c.338 0 .649.043.933.13.287.082.535.21.744.383.212.173.377.39.496.649.118.255.178.556.178.902 0 .27-.042.519-.124.746a1.88 1.88 0 0 1-.345.6 2.078 2.078 0 0 1-.54.454 2.765 2.765 0 0 1-.706.286v.022a1.708 1.708 0 0 1 .609.46c.087.1.171.215.254.345.086.126.181.274.286.443l1.45 2.33Zm-4.637-6.929v2.81h1.23c.226 0 .434-.034.625-.102a1.48 1.48 0 0 0 .501-.292c.14-.13.25-.286.33-.47a1.6 1.6 0 0 0 .118-.627c0-.414-.135-.737-.405-.968-.266-.234-.652-.35-1.159-.35h-1.24Zm7.893 7.059c-.816 0-1.468-.258-1.957-.773-.485-.52-.728-1.206-.728-2.06 0-.93.254-1.655.76-2.178.507-.522 1.192-.783 2.055-.783.823 0 1.464.254 1.924.762.464.508.696 1.212.696 2.113 0 .883-.25 1.59-.75 2.124-.496.53-1.163.795-2 .795Zm.065-5.048c-.568 0-1.017.194-1.348.583-.33.386-.496.92-.496 1.6 0 .656.167 1.173.501 1.551.335.379.782.568 1.343.568.571 0 1.01-.186 1.315-.557.31-.371.464-.899.464-1.583 0-.692-.155-1.226-.464-1.6-.305-.375-.744-.562-1.315-.562Zm4.982 4.918h-.885V47.26h.884v8.194Zm6.372 0h-.885v-3.157c0-1.174-.427-1.761-1.283-1.761-.442 0-.808.167-1.1.502-.287.332-.43.752-.43 1.26v3.156h-.885V49.92h.884v.92h.022c.417-.7 1.02-1.05 1.811-1.05.604 0 1.066.197 1.386.59.32.389.48.953.48 1.691v3.384Zm2.124-6.94a.56.56 0 0 1-.572-.573c0-.165.056-.302.167-.41a.55.55 0 0 1 .405-.168c.162 0 .298.056.41.168a.54.54 0 0 1 .172.41.544.544 0 0 1-.172.406.556.556 0 0 1-.41.167Zm.431 6.94h-.884V49.92h.884v5.535ZM76.7 55.2c-.424.257-.927.385-1.51.385-.787 0-1.423-.256-1.908-.768-.482-.515-.722-1.182-.722-2 0-.911.26-1.643.781-2.194.521-.555 1.217-.832 2.087-.832.485 0 .913.09 1.283.27v.908a2.244 2.244 0 0 0-1.316-.432c-.564 0-1.028.203-1.39.61-.36.404-.54.935-.54 1.595 0 .648.17 1.16.507 1.535.342.374.798.562 1.37.562.481 0 .934-.16 1.358-.481v.843Zm3.898.2c-.209.116-.483.174-.825.174-.967 0-1.45-.54-1.45-1.622v-3.275h-.95v-.757h.95v-1.35l.884-.287v1.637h1.39v.757h-1.39v3.119c0 .37.063.636.189.794.125.159.334.238.625.238a.928.928 0 0 0 .577-.184v.757Zm8.135-5.48-1.655 5.535h-.916l-1.138-3.962a2.583 2.583 0 0 1-.086-.513h-.022c-.01.13-.048.297-.113.502l-1.235 3.973h-.884l-1.671-5.535h.927l1.143 4.162c.036.126.061.292.076.497h.043c.01-.158.043-.328.097-.508l1.272-4.15h.809l1.143 4.172c.036.133.063.299.08.497h.044c.007-.14.037-.306.091-.497l1.122-4.173h.873Zm4.977 5.535h-.885v-.865h-.021c-.385.663-.951.995-1.699.995-.55 0-.98-.146-1.294-.438-.309-.292-.463-.68-.463-1.162 0-1.034.607-1.636 1.822-1.805l1.655-.233c0-.94-.38-1.41-1.137-1.41-.665 0-1.266.227-1.801.68v-.907c.543-.346 1.168-.52 1.876-.52 1.297 0 1.946.689 1.946 2.065v3.6Zm-.885-2.8-1.332.184c-.41.058-.718.16-.927.308-.208.144-.313.402-.313.773 0 .27.096.492.286.665.194.169.451.254.771.254.439 0 .8-.153 1.084-.46.287-.31.431-.7.431-1.172v-.552Z" mask="url(#d)"/>
</svg>
