<svg xmlns="http://www.w3.org/2000/svg" width="149" height="49" fill="none" viewBox="0 0 149 49">
  <path fill="#fff" stroke="#fff" stroke-width="2" d="M99.612 32.021c-1.18-.125-2.08-.798-2.701-2.02.29.26.66.431 1.105.448l.052.002.052-.003c.079-.005.184-.008.317-.008m1.175 1.581c.66-.055 1.203-.316 1.629-.776m-1.63.776.106-.994a2.48 2.48 0 0 1-.096-.012m-.01 1.006-.082-.997a.924.924 0 0 0 .092-.01m1.62.231c.302-.33.494-.73.58-1.2a11.2 11.2 0 0 1-1.128.255m.548.945-.733-.68-.003.003m.736.677-.738-.674.002-.003m.188-.268c.113-.218.181-.498.181-.874a2.39 2.39 0 0 0-.008-.177c-.477.099-.995.172-1.553.222a11.007 11.007 0 0 0-1.259-.02.734.734 0 0 1-.346-.1 4.071 4.071 0 0 0 .385.684c.109.155.224.29.344.405m2.256-.14a15.4 15.4 0 0 1-1.292.167l-.073.007-.074-.005a15.59 15.59 0 0 0-.817-.029m2.256-.14a1.27 1.27 0 0 1-.188.268m-2.068-.128c.346.333.74.51 1.184.575m.884-.447c-.229.247-.51.398-.884.447m-2.539-3.96a2.04 2.04 0 0 1 .027-.114c.079-.305.21-.466.385-.48.516.007.928-.004 1.238-.024a12.9 12.9 0 0 0 1.293-.149l-2.943.767Zm0 0a13.448 13.448 0 0 1-.018-.125l.018.125Zm3.874-.961a9.005 9.005 0 0 1-.192.046l.191-.048.001.002Zm0 0a.158.158 0 0 1 .014-.006l-.014.004v.002Zm-1.317-2.33c.04.542.1 1.056.183 1.544a12.32 12.32 0 0 1-2.315.153h-.046l-.045.003a1.3 1.3 0 0 0-.489.133c-.016-.24-.029-.49-.038-.749.116-2.37.171-4.011.171-4.912v-.033c-.05-1.473-.565-2.746-1.562-3.75l-.006-.006c-1.03-1.02-2.376-1.498-3.939-1.498h-.026l-.026.002c-2.191.114-4.361.92-6.494 2.363l-.485.328.049.584c.168 2.015.25 4.797.25 8.36 0 1.526-.02 2.738-.06 3.644-.044.94-.106 1.46-.16 1.662l-.005.018-.004.02c-.009.039-.023.094-.163.173-.165.094-.467.192-.973.238a2.788 2.788 0 0 1-1.165-.34l-.005-.002a1.07 1.07 0 0 1-.21-.147c.322-3.805.486-6.505.486-8.064 0-1.122-.056-2.496-.174-4.119l-.068-.927h-.93c-.06 0-.214-.023-.49-.213a.396.396 0 0 1-.185-.278c.085-.446.296-.936.677-1.482l.26-.374-.11-.441a2.305 2.305 0 0 0-.08-.24l-.001-.004a162.746 162.746 0 0 0-.513-1.277c-.296-.727-.436-1.217-.48-1.505.074-.375.247-.737.551-1.097l.005-.006c.268-.321.531-.429.834-.429.374 0 .701.13 1.025.48.581.683.934 1.384 1.092 2.108l.275 1.252 1.147-.57c2.367-1.177 4.678-1.753 6.947-1.753 1.335 0 2.524.216 3.58.636a6.015 6.015 0 0 1 2.545 1.89c.652.83 1.087 1.872 1.259 3.162l.002.02.004.018c.045.263.074.776.074 1.594 0 .658-.053 1.882-.17 3.694l-.004.069.005.069ZM71.526 16.1v.002a219.11 219.11 0 0 0 1.164 8.082L71.527 16.1Zm0 0c-.288-2.322-.445-5.03-.473-8.13.108-1.741.157-3.038.158-3.875.037-.665.212-1.017.396-1.208.236-.238.471-.33.75-.33.476 0 .8.125 1.051.33l.002.001M71.527 16.1 73.41 2.89m0 0c.223.181.301.359.305.58m-.305-.58.305.58m0 0a101.85 101.85 0 0 0-.09 3.85c0 2.555.098 4.911.286 7.088.188 2.168.472 4.556.852 7.156L73.715 3.47ZM75.729 30c0-1.034-.066-2.043-.197-3.027L75.729 30Zm0 0c0 .734-.111 1.23-.273 1.56m.273-1.56-.273 1.56m0 0c-.055.109-.17.257-.59.323-.334-.05-.668-.2-1.013-.493-.322-.28-.414-.53-.414-.779 0-1.23-.262-3.396-.749-6.425l2.766 7.373Zm-.692-9.995c.377 2.59.631 4.39.768 5.407l-.768-5.407ZM38.5 10.929l.005.008.005.008c.509.822.765 1.74.765 2.772 0 .884-.066 1.744-.206 2.575l-.002.009c-.139.867-.374 2.005-.696 3.42v.006a81.66 81.66 0 0 0-.704 3.432l-.002.008a19.246 19.246 0 0 0-.253 2.69l-.002.046.004.046c.026.394.15 1.012.333 1.802.18.775.249 1.29.249 1.586 0 .197-.06.359-.31.546a1.99 1.99 0 0 1-1.03.392c-.64-.085-1.076-.365-1.396-.844-.36-.539-.622-1.407-.678-2.714.063-.904.266-2.34.623-4.336.364-2.041.606-3.413.724-4.12.13-.777.185-1.738.185-2.852 0-.556-.057-1.513-.172-2.846.007-.897.212-1.379.446-1.634l.002-.002c.293-.322.605-.456.993-.456.705 0 .975.217 1.117.458Zm-1.685-6.224c.224.448.502.84.827 1.171l-.828-1.171Zm0 0a4.317 4.317 0 0 1-.243-.576 1.403 1.403 0 0 1-.044-.166c-.007-.038-.008-.055-.008-.055l.294.797Zm2.377-2.637a.1.1 0 0 1 .006.01.085.085 0 0 1-.006-.01Zm.047.127c.064.218.115.605.115 1.215 0 .983-.135 1.68-.34 2.15-.102.224-.338.475-.973.628a.526.526 0 0 1-.038-.02 1.64 1.64 0 0 1-.36-.292l1.596-3.681Zm-1.155 4.008h.002-.002Zm-32.181.212-.02-.01-.007-.003-.553-.276v-.619c0-.463-.131-.646-.248-.742-.154-.127-.495-.276-1.197-.276a3.3 3.3 0 0 0-1.286.26c-.434.18-.6.356-.655.45l-.008.012-.008.012v.001l-.002.003a1.92 1.92 0 0 0-.093.23c-.05.15-.103.352-.158.612-.108.52-.21 1.226-.302 2.13v.004C1.178 9.998 1.055 12.22 1 14.877c.035 2.46.15 4.974.348 7.546v.003c.19 2.569.49 5.058.89 7.475v.003c.393 2.406.89 4.468 1.48 6.202l.013.039.01.04c.003.013.006.02.007.02v.002l.012.01a.308.308 0 0 0 .049.03c.113.058.361.128.822.128.403 0 .685-.078.878-.187l.01-.005.009-.005.019-.01c-.49-2.842-.91-6.232-1.279-10.166-.387-4.06-.595-7.674-.637-10.834v-.048c.097-2.763.235-4.707.43-5.753l.207-1.117 1.082.348c1.35.435 2.467 1.19 3.331 2.27L5.903 6.415Zm0 0 .02.01m-.02-.01.02.01m0 0c1.098.488 2.153 1.181 3.16 2.1a26.94 26.94 0 0 1 2.933 3.153M5.923 6.424l6.093 5.254m13.181 17.168c.207-2.99.406-6.363.592-10.121m-.592 10.121c0 .652.213 1.16.64 1.51m-.64-1.51.998.069c0-.013.002-.025.003-.038v-.03h-1Zm.592-10.121L30.14 7.038m-4.35 11.687c.185-3.766.275-6.824.275-9.171 0-.775-.012-1.424-.036-1.947l-.24 11.118Zm.048 11.631c.43.35.986.55 1.674.59m-1.674-.59.634-.772-.001-.002h-.002l-.631.774Zm1.674.59c.76-.04 1.42-.233 1.977-.576m-1.977.577.06-.998a3.152 3.152 0 0 1-.056-.004l-.058.003.054.999Zm1.977-.577c.564-.35.88-.83.956-1.448m-.956 1.448-.525-.851h-.001l-.002.002.528.85Zm.956-1.448c.275-2.248.412-4.898.412-7.95 0-2.289-.062-4.657-.192-7.104a127.298 127.298 0 0 0-.523-6.83m.303 21.884-.993-.122.993.122ZM30.14 7.038l-.994.104.994-.104Zm-18.125 4.64.002.003m-.002-.003.002.003m0 0c.66.826 1.228 1.544 1.712 2.157m-1.712-2.157 1.712 2.157m0 0 .584.738-.584-.738ZM24.476 1.96l.014-.008-.53-.848.503.864.013-.008Zm1.134 4.206-.878-.48a9.086 9.086 0 0 0-.08.151 1.276 1.276 0 0 0-.042.33h1Zm97.876 33.863a8.401 8.401 0 0 0-.605-1.054c-.012.058-.023.13-.032.217-.075.868.001 2.214.272 4.076l1.59-.294a24.849 24.849 0 0 0-1.225-2.945Zm0 0 .893-.446-.893.446Zm.155 5.92c-.176-.634-.35-1.522-.519-2.68l1.589-.295c.38 1.096.574 1.817.632 2.228v.004c.077.535.008.936-.146 1.245l-.001.002c-.18.365-.382.538-.58.623l-.017.008-.016.008c-.181.086-.255.06-.326.018l-.024-.019-.017-.013-.228-.223c.001 0-.039-.049-.104-.193a5.071 5.071 0 0 1-.243-.713ZM138.529 3.85l-.099.342c-.001 0-.025.058-.121.182a5.155 5.155 0 0 1-.514.551c-.477.453-1.178 1.025-2.121 1.72-1.522 1.118-2.67 1.82-3.471 2.162-.081.034-.15.058-.207.075l.016-.034c.127-.247.33-.574.627-.989a25.405 25.405 0 0 1 2.023-2.468c.791-.851 1.337-1.366 1.671-1.61l.002-.002c.434-.321.821-.449 1.174-.461.403-.014.654.082.826.218l.014.01.014.01a.464.464 0 0 1 .145.153.25.25 0 0 1 .022.13v.001l-.001.01Zm-30.639 4.4c-.786-.658-1.239-1.093-1.443-1.346-.263-.326-.298-.537-.29-.659.014-.194.073-.294.185-.383l.016-.013.016-.014c.107-.094.225-.14.421-.122a.737.737 0 0 1 .15.035l.011.003.01.003a10.52 10.52 0 0 1 .157.048 1.836 1.836 0 0 0 .101.028c.029.015.083.044.164.1.128.09.293.224.495.416.405.384.911.945 1.522 1.701l.001.001c.841 1.04 1.388 1.84 1.691 2.418a8.927 8.927 0 0 1-.917-.528h-.001a23.688 23.688 0 0 1-2.289-1.689Zm10.283-2.84v.001c.094.63.149 1.154.174 1.581a1.644 1.644 0 0 1-.037-.072l-.002-.004a18.09 18.09 0 0 1-.885-2.074c-.274-.773-.405-1.244-.441-1.483-.043-.292.016-.4.04-.437a.27.27 0 0 1 .075-.08.166.166 0 0 1 .074-.025l.021-.002.02-.004c.057-.011.101-.01.182.046a.63.63 0 0 1 .077.074l.064.07.02.023.044.047a.067.067 0 0 1 .006.006l.002.004c.018.032.103.18.212.559.121.417.24 1.002.354 1.77Zm14.244 30.765c.311-.194.559-.288.753-.325.276.448.519.82.724 1.113l.001.002a19.93 19.93 0 0 0 1.955 2.388c.66.684 1.431 1.4 2.31 2.147.855.727 1.445 1.238 1.775 1.527.275.243.517.513.728.814a.626.626 0 0 1 .048.079 1.805 1.805 0 0 1-.256.22 2.42 2.42 0 0 1-.896.27c-.406-.496-1.114-1.123-2.012-1.85a53.892 53.892 0 0 1-2.639-2.257l-.005-.005c-.683-.622-1.39-1.43-2.115-2.424a18.321 18.321 0 0 0-.782-1.315c.072-.118.197-.251.411-.384Zm-26.713 6.747-.005.004a.335.335 0 0 1-.139.076l-.035-.015a1.56 1.56 0 0 1-.284-.191 1.753 1.753 0 0 1-.299-.442c.41-.412.884-1.038 1.41-1.797l.001-.002a44.281 44.281 0 0 1 1.799-2.443l.003-.004c.496-.629 1.172-1.305 2.036-2.026.527-.34.936-.626 1.212-.845.009 0 .027.002.058.01.151.044.315.131.496.298.13.124.223.23.288.321a18.394 18.394 0 0 0-2.889 2.545 26.213 26.213 0 0 0-1.762 2.184c-.582.795-.991 1.343-1.22 1.647a3.94 3.94 0 0 1-.67.68Zm6.679-6.797-.001-.004a.014.014 0 0 1 .001.004Zm-13.585-8.691h.001a13.39 13.39 0 0 0 2.404-.371c.72-.184 1.494-.437 2.321-.758.792-.305 1.342-.512 1.653-.627a2.76 2.76 0 0 1 .669-.144c.023.066.05.163.075.296.006.087.007.172.003.256-.194.16-.618.445-1.496.837l-.23.095-.141.058-.007.003c-.229.096-.45.187-.665.273h-.017l-.177.075a1.177 1.177 0 0 0-.115.045h-.001c-.343.134-.581.22-.785.294-.113.042-.217.079-.322.119l-.179.062-.182.064-.006.001c-.626.213-1.393.363-2.311.45a13.728 13.728 0 0 0-1.093-.026 1.366 1.366 0 0 1-.14-.484v-.003a2.934 2.934 0 0 1-.023-.487c.293-.004.548-.013.764-.027Zm-.555 1.076Zm-.158-1.371-.001.002v-.002Zm40.296-5.583a17.29 17.29 0 0 1-1.084-.14 3.167 3.167 0 0 0-.12.813l1.204-.672Zm0 0a16.07 16.07 0 0 0 2.902.025 23.9 23.9 0 0 0 2.899-.45c1.01-.212 1.71-.351 2.102-.425a3.46 3.46 0 0 1 .953-.042.268.268 0 0 1 .082.018c.005.015.014.04.023.078.025.103.047.26.053.487a2.837 2.837 0 0 1-.236.92c-.617.016-1.446.174-2.406.404h-.002a40.756 40.756 0 0 1-3.106.64l-.006.001c-.815.135-1.781.166-2.912.087a14.488 14.488 0 0 0-1.415-.257.37.37 0 0 1-.017-.036c-.081-.186-.131-.437-.118-.777l1.204-.672Zm-17.838-10.385a9.526 9.526 0 0 1 3.448 1.16l.002.001a7.789 7.789 0 0 1 2.713 2.495v.001c.679 1.007 1.044 2.146 1.088 3.437.002.54.088 1.063.241 1.578l.001.005c.145.48.353 1.025.608 1.625l.004.009c.248.57.427 1.026.537 1.36l.003.01c.091.269.14.57.14.907 0 .496-.232 1.1-.921 1.827-1.299 1.357-2.577 2.525-3.835 3.49l-.002.001a16.488 16.488 0 0 1-4.005 2.282l-.003.002c-1.396.56-2.875.84-4.437.84-1.445 0-2.701-.45-3.924-1.39-1.256-.973-2.297-2.217-3.108-3.733-.814-1.529-1.325-3.025-1.546-4.492.01-1.788.402-3.403 1.159-4.858.769-1.474 1.811-2.626 3.118-3.46a7.852 7.852 0 0 1 4.301-1.243h1.634l.224-.69c.084-.256.285-.525.775-.764l.007-.004c.511-.255 1.093-.391 1.778-.396Zm2.421 3.339-.003-.002c-.695-.355-1.598-.69-2.67-1.009l-1.072-.317-.197 1.1c-.05.278-.229.586-.783.896l-.01.006c-.55.316-1.317.526-2.358.582l-.027.002-.028.003c-1.314.144-2.512.537-3.563 1.176-1.123.683-1.878 1.66-2.179 2.926l-.007.03-.005.03a42.704 42.704 0 0 0-.29 2.115l-.009.076.003.076a7.6 7.6 0 0 0 .984 3.482 8.284 8.284 0 0 0 2.447 2.768h.001c1.037.744 2.173 1.181 3.411 1.302l.052.005h.052c1.162-.008 2.345-.324 3.536-.895l.004-.001a16.115 16.115 0 0 0 3.185-2.02c.941-.77 1.726-1.52 2.344-2.257l.03-.035.026-.038c.362-.524.666-1.129.666-1.77 0-.49-.202-1.09-.455-1.697l-.002-.003c-.232-.552-.366-1.015-.419-1.397l-.009-.063-.016-.062c-.133-.489-.273-.97-.41-1.44l-.001-.004-.001-.004-.126-.43a93.347 93.347 0 0 0-.296-1l-.043-.14-.022-.035a3.59 3.59 0 0 0-1.74-1.956Zm-60.287 3.814-.052.154a1.14 1.14 0 0 1-.435.569c-.109.076-.22.13-.307.17a5.792 5.792 0 0 1-.628.223l-.01.003c-.386.115-1.141.32-2.24.617l-.611.165c-1.448.392-2.458.671-3.04.84l-.009.003-.01.002c-2.353.633-4.994 1.63-7.931 2.993l-1.421.659v-1.566c0-.341-.025-.601-.063-.792l-.024-.117.005-.119a10.3 10.3 0 0 1 .752-3.468 10.15 10.15 0 0 1 1.882-3.03l14.142 2.694Zm0 0v-.162m0 .162v-.162m0 0c0-.285-.115-.522-.155-.602v-.002a3.785 3.785 0 0 0-.223-.386 14.62 14.62 0 0 0-.71-.98c-.673-.877-1.573-1.649-2.653-2.347m3.74 4.317-3.74-4.317m0 0-.007-.005m.007.005-.007-.005m0 0c-1.19-.754-2.538-1.123-4.011-1.123m4.01 1.123-4.01-1.123m-3.105-1.282c-1.618.376-2.953 1.107-4.041 2.194l-.002.001c-1.18 1.171-2.05 2.513-2.602 4.024v.001c-.565 1.536-.864 3.061-.901 4.56.08 1.019.233 1.875.45 2.57l.245.789-.679.362-.002.005c-.025.047-.06.136-.092.284.053.302.188.641.447 1.026.073.106.137.187.19.248l.616-.614.674 1.023c1.647 2.502 3.664 4.215 6.057 5.2 2.47 1.019 5.105 1.53 7.898 1.53 2.087 0 4.301-.238 6.66-.727l.011-.002.012-.002c.2-.037.251-.1.268-.122.03-.04.101-.17.101-.494 0-.322-.101-.603-.334-.877l-.005-.007c-.169-.203-.332-.284-.517-.302-2.366.48-4.485.756-6.326.82h-.056a22.404 22.404 0 0 1-4.788-.597 13.453 13.453 0 0 1-4.293-1.839h-.001a9.539 9.539 0 0 1-3.173-3.48l-.467-.862.853-.484a30.456 30.456 0 0 1 4.587-2.145c1.476-.545 2.808-.957 3.99-1.224 1.15-.266 2.405-.51 3.743-.726m-8.523-10.133 8.684 11.12m-8.684-11.12.176-.033c1.485-.276 2.63-.402 3.458-.402 1.11 0 2.066.147 2.884.427l.006.002a8.078 8.078 0 0 1 2.238 1.148c.673.495 1.382 1.142 2.122 1.943.752.826 1.353 1.48 1.794 1.955m-12.678-5.04 9.355.336c.736.542 1.492 1.236 2.266 2.073a264.87 264.87 0 0 0 1.808 1.97m-4.906 5.754h.002l.16.987m-.162-.987h-.002l.163.987m-.16-.987c1.322-.22 2.24-.398 2.78-.542l.018-.005.017-.004c.795-.182 1.317-.506 1.655-.917l.002-.003a2.23 2.23 0 0 0 .54-1.486c0-.702-.257-1.412-.858-2.136m-3.993 6.08c1.323-.22 2.286-.405 2.877-.563.96-.22 1.695-.638 2.204-1.256.516-.621.77-1.328.77-2.125 0-.981-.371-1.918-1.107-2.797m-.75.661.017.02.733-.68m-.75.66-.017-.019.767-.642m-10.324-3.097a8.119 8.119 0 0 0-3.543.791m3.543-.79-3.543.79m0 0a9.019 9.019 0 0 0-2.84 2.122l2.84-2.122Zm-2.678 13.356c.107.18.218.353.335.522l-.03.017-.305-.539Z"/>
</svg>
