<svg width="237" height="304" viewBox="0 0 237 304" fill="none" xmlns="http://www.w3.org/2000/svg">
<path d="M151.023 2C148.444 3.24075 122.517 16.2593 117.14 46.5736C111.814 76.5949 131.247 97.5817 133.282 99.7078C138.359 97.0517 155.557 87.2442 163.381 66.4756C175.989 32.9939 152.091 3.27816 151.023 2Z" fill="#57B05D" stroke="black" stroke-width="3" stroke-linecap="round" stroke-linejoin="round"/>
<path d="M143.917 39.0977C140.745 44.5283 139.134 48.7681 138.297 51.3867C137.623 53.5004 136.992 55.9756 135.868 60.4149C135.712 61.0322 135.45 62.0672 135.175 63.4513C135.175 63.4513 134.763 65.5463 134.5 67.7348C134.176 70.5031 133.639 138.151 133.295 185" stroke="black" stroke-width="3" stroke-miterlimit="10" stroke-linecap="round"/>
<path d="M235.294 106.953C234.051 104.908 216.66 77.3054 187.13 76.5572C165.137 76.0023 147.746 90.6295 144.193 93.6161C141.17 96.1599 138.878 98.5292 137.336 100.238C141.22 105.369 152.685 119.055 172.536 124.198C206.344 132.971 233.227 108.867 235.288 106.953H235.294Z" fill="#57B05D" stroke="black" stroke-width="3" stroke-linecap="round" stroke-linejoin="round"/>
<path d="M33.7571 93.3043C35.6679 96.0289 51.7226 118.094 81.3217 119.747C111.114 121.405 129.598 100.979 131.753 98.5042C129.298 94.227 118.776 77.0186 98.0758 71.7126C79.3359 66.9117 63.3187 74.6992 54.2954 79.0886C44.9535 83.6276 38.1595 89.1518 33.7571 93.298V93.3043Z" fill="#57B05D" stroke="black" stroke-width="3" stroke-linecap="round" stroke-linejoin="round"/>
<path d="M199.675 100.917C193.062 98.6417 183.752 96.2412 172.436 95.7549C158.136 95.1439 146.503 97.8436 138.991 100.232" stroke="black" stroke-width="3" stroke-linecap="round" stroke-linejoin="round"/>
<path d="M71.2616 95.0504C78.3179 93.4543 87.4599 92.1013 98.1131 92.307C113.337 92.6063 125.726 95.9732 134.113 99.0096" stroke="black" stroke-width="3" stroke-linecap="round" stroke-linejoin="round"/>
<path d="M92.1187 212.223C96.4212 210.028 100.955 207.977 106.643 203.575C112.139 199.323 113.912 196.586 116.841 193.898C124.915 186.485 137.629 183.212 147.714 184.421C165.473 186.554 177.95 202.933 182.308 216.986C188.334 236.408 179.461 253.317 175.639 260.612C157.468 295.247 117.752 300.828 114.518 301.227C104.314 302.492 84.6065 304.93 69.3948 291.768C55.7505 279.959 54.5578 263.243 54.4641 261.535C53.6274 246.434 61.2395 233.902 68.5955 226.987C75.0336 220.939 84.619 216.045 92.1187 212.217V212.223Z" fill="#CFA773" stroke="black" stroke-width="3" stroke-linecap="round" stroke-linejoin="round"/>
<path d="M64.1179 209.361C67.2339 208.201 73.2287 206.462 80.7159 207.36C85.9988 207.996 90.1139 209.716 92.7366 211.076" stroke="black" stroke-width="3" stroke-miterlimit="10" stroke-linecap="round"/>
<path d="M2.10388 252.7C5.77567 250.056 14.5867 244.457 27.2756 243.335C40.1144 242.206 49.8621 246.284 53.9273 248.261" stroke="black" stroke-width="3" stroke-miterlimit="10" stroke-linecap="round"/>
<path d="M21.3928 296.538C22.9789 297.261 32.2521 301.289 42.618 297.03C54.951 291.968 58.1107 279.566 58.4104 278.301" stroke="black" stroke-width="3" stroke-miterlimit="10" stroke-linecap="round"/>
<path d="M188.421 298.153C185.942 297.248 183.064 295.908 180.116 293.888C171.83 288.208 167.908 280.533 166.216 276.467" stroke="black" stroke-width="3" stroke-miterlimit="10" stroke-linecap="round"/>
<path d="M213.269 243.372C211.252 241.689 208.655 239.862 205.432 238.285C197.358 234.344 189.752 234.132 185.45 234.375" stroke="black" stroke-width="3" stroke-miterlimit="10" stroke-linecap="round"/>
<path d="M159.341 218.707C160.721 219.586 163.206 221.419 165.123 224.636C167.49 228.595 167.665 232.411 167.646 234.076" stroke="black" stroke-width="3" stroke-miterlimit="10" stroke-linecap="round"/>
<path d="M122.699 240.411C127.357 243.136 133.477 247.45 139.265 254.078C149.375 265.65 152.966 277.958 154.359 284.498" stroke="black" stroke-width="3" stroke-miterlimit="10" stroke-linecap="round"/>
<path d="M71.8315 238.865C73.6549 239.451 78.1323 241.159 81.6854 245.667C84.3518 249.046 85.2948 252.475 85.6569 254.333" stroke="black" stroke-width="3" stroke-miterlimit="10" stroke-linecap="round"/>
</svg>
