<svg xmlns="http://www.w3.org/2000/svg" width="200" height="200" fill="none" viewBox="0 0 200 200">
  <path fill="#E89145" stroke="#000" stroke-linecap="round" stroke-linejoin="round" stroke-width="3" d="M101.122 3.308a64.917 64.917 0 0 0-9.28 14.635 64.642 64.642 0 0 0-5.076 16.814 33.344 33.344 0 0 1 14.294-3.3c6.696 0 11.803 2.023 14.388 3.3a64.315 64.315 0 0 0-5.076-16.814 63.847 63.847 0 0 0-9.281-14.635h.031Z"/>
  <path fill="#E89145" stroke="#000" stroke-linecap="round" stroke-linejoin="round" stroke-width="3" d="M54.39 25.665a65.46 65.46 0 0 0 5.669 16.378 64.36 64.36 0 0 0 9.996 14.448c.623-2.803 2.211-8.002 6.322-13.203 4.173-5.262 8.938-7.94 11.554-9.216a64.821 64.821 0 0 0-16.319-6.54 63.535 63.535 0 0 0-17.221-1.867Z"/>
  <path fill="#E89145" stroke="#000" stroke-linecap="round" stroke-linejoin="round" stroke-width="3" d="M42.672 76.108a65.457 65.457 0 0 0 16.35 5.791 63.98 63.98 0 0 0 17.533 1.184c-1.806-2.242-4.89-6.726-6.384-13.203-1.495-6.539-.654-11.957 0-14.759a65.67 65.67 0 0 0-15.291 8.687 63.979 63.979 0 0 0-12.208 12.3Z"/>
  <path fill="#E89145" stroke="#000" stroke-linecap="round" stroke-linejoin="round" stroke-width="3" d="M74.878 116.711c3.986-1.806 9.28-4.67 14.7-9.154a63.854 63.854 0 0 0 11.865-12.953c-2.897 0-8.315-.374-14.295-3.239a33.04 33.04 0 0 1-11.553-9.216 65.115 65.115 0 0 0-2.741 17.343 64.94 64.94 0 0 0 1.993 17.219h.031Z"/>
  <path fill="#E89145" stroke="#000" stroke-linecap="round" stroke-linejoin="round" stroke-width="3" d="M126.658 116.867a63.506 63.506 0 0 0 1.993-17.22c-.124-7.192-1.463-13.108-2.74-17.343a32.924 32.924 0 0 1-11.429 9.155 33.019 33.019 0 0 1-14.388 3.3 64.774 64.774 0 0 0 11.865 12.953c5.45 4.515 10.713 7.38 14.699 9.155Z"/>
  <path fill="#E89145" stroke="#000" stroke-linecap="round" stroke-linejoin="round" stroke-width="3" d="M159.117 76.481a64.888 64.888 0 0 0-12.207-12.299 65.072 65.072 0 0 0-15.292-8.687 32.617 32.617 0 0 1 0 14.666c-1.494 6.538-4.609 11.053-6.415 13.295 4.422.312 10.495.25 17.533-1.214a63.206 63.206 0 0 0 16.319-5.792l.062.031Z"/>
  <path fill="#E89145" stroke="#000" stroke-linecap="round" stroke-linejoin="round" stroke-width="3" d="M147.713 25.945c-4.392-.125-10.371.187-17.222 1.868a64.16 64.16 0 0 0-16.319 6.539 32.623 32.623 0 0 1 11.46 9.123c4.205 5.231 5.762 10.494 6.416 13.296a64.355 64.355 0 0 0 9.997-14.448 65.07 65.07 0 0 0 5.668-16.378Z"/>
  <path fill="#E89145" stroke="#000" stroke-linecap="round" stroke-linejoin="round" stroke-width="3" d="M124.202 15.265a49.842 49.842 0 0 0-11.429 7.13 50.546 50.546 0 0 0-9.218 10.089c2.242 0 6.446.28 11.118 2.522a25.348 25.348 0 0 1 8.969 7.162 49.455 49.455 0 0 0 2.117-13.483 50.86 50.86 0 0 0-1.557-13.39v-.03Zm-45.903-.467a50.72 50.72 0 0 0-1.557 13.389 49.244 49.244 0 0 0 2.117 13.482 25.987 25.987 0 0 1 8.907-7.13 25.667 25.667 0 0 1 11.18-2.553 50.56 50.56 0 0 0-9.218-10.089 49.85 49.85 0 0 0-11.43-7.13v.03Zm-28.963 35.59a50.183 50.183 0 0 0 9.498 9.56A50.335 50.335 0 0 0 70.7 66.703a25.631 25.631 0 0 1 0-11.396 25.666 25.666 0 0 1 4.983-10.338 49.108 49.108 0 0 0-13.64.934 50.492 50.492 0 0 0-12.707 4.484Zm9.742 44.869a49.392 49.392 0 0 0 13.391-1.463 49.288 49.288 0 0 0 12.675-5.075 25.277 25.277 0 0 1-8.906-7.1 25.638 25.638 0 0 1-4.983-10.338c-2.336 2.523-5.263 6.26-7.786 11.241a48.403 48.403 0 0 0-4.39 12.735Zm41.18 20.333c2.18-2.615 4.921-6.383 7.194-11.396a49.372 49.372 0 0 0 3.924-13.078c-2.024.965-5.948 2.553-11.118 2.553-5.2 0-9.156-1.588-11.18-2.553a49.645 49.645 0 0 0 3.955 13.078 49.67 49.67 0 0 0 7.194 11.365l.031.031Zm41.574-19.523a51.651 51.651 0 0 0-4.391-12.735 50.264 50.264 0 0 0-7.786-11.24 25.832 25.832 0 0 1-4.92 10.275 25.615 25.615 0 0 1-8.969 7.161 49.27 49.27 0 0 0 12.675 5.076 49.384 49.384 0 0 0 13.391 1.463Zm10.655-44.651a50.032 50.032 0 0 0-12.706-4.484c-5.481-1.152-10.215-1.152-13.64-.934a25.618 25.618 0 0 1 4.951 10.244c1.184 5.075.499 9.279 0 11.49a49.738 49.738 0 0 0 11.866-6.757 50.163 50.163 0 0 0 9.498-9.56h.031Z"/>
  <path stroke="#000" stroke-linecap="round" stroke-linejoin="round" stroke-width="3" d="M111.341 181.229a217.192 217.192 0 0 0 1.868-35.653 213.259 213.259 0 0 0-5.014-40.012"/>
  <path fill="#E89145" stroke="#000" stroke-linecap="round" stroke-linejoin="round" stroke-width="3" d="M149.399 197.607c-2.896-2.74-16.662-15.226-38.088-15.32-22.017-.093-36.094 12.985-38.866 15.663 11.65 0 37.817.05 37.817.05h39.137v-.393Z"/>
  <path fill="#F7CC47" stroke="#000" stroke-miterlimit="10" stroke-width="3" d="M101.002 94.355c17.217 0 31.174-13.955 31.174-31.17 0-17.213-13.957-31.168-31.174-31.168S69.828 45.972 69.828 63.186s13.957 31.169 31.174 31.169Z"/>
  <path stroke="#000" stroke-linecap="round" stroke-miterlimit="10" stroke-width="3" d="M104.334 40.455 78.828 65.957m34.811-16.223L88.102 75.236m34.857-15.786L97.422 84.981M78.61 59.262l25.536 25.533M87.883 49.952l25.537 25.533M97.64 40.642l25.506 25.533"/>
  <path fill="#6EAD66" stroke="#000" stroke-miterlimit="10" stroke-width="3" d="M113.578 144c3.582-4.39 49.418-21.5 49.418-21.5s-1.614 10.745-4.012 15.945c-4.111 8.937-8.969 19.43-20.554 23.478-11.523 4.017-22.142-.934-24.852-2.304V144Z"/>
  <path fill="#6EAD66" d="M126.82 147.102a69.86 69.86 0 0 1 8.938-6.228 68.503 68.503 0 0 1 10.589-5.013"/>
  <path stroke="#000" stroke-linecap="round" stroke-linejoin="round" stroke-width="3" d="M126.82 147.102a69.86 69.86 0 0 1 8.938-6.228 68.503 68.503 0 0 1 10.589-5.013m-60.637 18.34c3.894 2.46 10.091 7.131 15.136 14.977a48.994 48.994 0 0 1 5.886 13.016"/>
  <path fill="#E89145" stroke="#000" stroke-linecap="round" stroke-linejoin="round" stroke-width="3" d="M52.078 131.844c.156 1.962.592 4.64 1.713 7.629 1.121 3.02 2.585 5.356 3.737 6.975.436-1.214 1.401-3.487 3.488-5.605a14.712 14.712 0 0 1 5.637-3.55 28.899 28.899 0 0 0-6.976-3.736c-2.99-1.121-5.637-1.526-7.63-1.713h.031Z"/>
  <path fill="#E89145" stroke="#000" stroke-linecap="round" stroke-linejoin="round" stroke-width="3" d="M45.266 149.406a28.575 28.575 0 0 0 6.602 4.173 29.43 29.43 0 0 0 7.599 2.273 15.445 15.445 0 0 1-1.495-6.446c0-3.02.903-5.324 1.495-6.477a29.24 29.24 0 0 0-7.568 2.274 29.62 29.62 0 0 0-6.602 4.172l-.031.031Z"/>
  <path fill="#E89145" stroke="#000" stroke-linecap="round" stroke-linejoin="round" stroke-width="3" d="M52.828 166.656a28.158 28.158 0 0 0 7.63-1.712c3.02-1.121 5.357-2.585 6.976-3.737-1.215-.436-3.488-1.401-5.606-3.487a14.709 14.709 0 0 1-3.55-5.636 28.866 28.866 0 0 0-3.737 6.975c-1.121 2.989-1.526 5.636-1.713 7.628v-.031Z"/>
  <path fill="#E89145" stroke="#000" stroke-linecap="round" stroke-linejoin="round" stroke-width="3" d="M70.384 173.507a28.586 28.586 0 0 0 4.173-6.602 29.352 29.352 0 0 0 2.273-7.597 15.45 15.45 0 0 1-6.446 1.494c-3.02 0-5.325-.903-6.478-1.494a29.198 29.198 0 0 0 2.274 7.566 29.64 29.64 0 0 0 4.173 6.601l.031.032Z"/>
  <path fill="#E89145" stroke="#000" stroke-linecap="round" stroke-linejoin="round" stroke-width="3" d="M87.637 165.94a28.176 28.176 0 0 0-1.713-7.629c-1.12-3.02-2.584-5.355-3.737-6.975-.436 1.215-1.401 3.488-3.488 5.605a14.7 14.7 0 0 1-5.636 3.55 28.899 28.899 0 0 0 6.975 3.736c2.99 1.121 5.637 1.526 7.63 1.713h-.03Z"/>
  <path fill="#E89145" stroke="#000" stroke-linecap="round" stroke-linejoin="round" stroke-width="3" d="M94.49 148.378a28.611 28.611 0 0 0-6.602-4.172 29.352 29.352 0 0 0-7.599-2.273 15.435 15.435 0 0 1 1.495 6.445c0 3.021-.903 5.325-1.495 6.477a29.186 29.186 0 0 0 7.568-2.273 29.69 29.69 0 0 0 6.602-4.172l.031-.032Z"/>
  <path fill="#E89145" stroke="#000" stroke-linecap="round" stroke-linejoin="round" stroke-width="3" d="M86.926 131.097c-1.962.156-4.64.592-7.63 1.713-3.02 1.121-5.356 2.584-6.976 3.736 1.215.436 3.488 1.401 5.606 3.488a14.694 14.694 0 0 1 3.55 5.636 28.902 28.902 0 0 0 3.737-6.975c1.122-2.99 1.526-5.636 1.713-7.629v.031Z"/>
  <path fill="#E89145" stroke="#000" stroke-linecap="round" stroke-linejoin="round" stroke-width="3" d="M69.36 124.278a28.573 28.573 0 0 0-4.172 6.601 29.354 29.354 0 0 0-2.274 7.598 15.432 15.432 0 0 1 6.447-1.495c3.02 0 5.325.903 6.477 1.495a29.188 29.188 0 0 0-2.273-7.567 29.657 29.657 0 0 0-4.173-6.601l-.031-.031Z"/>
  <path fill="#F7CC47" stroke="#000" stroke-linecap="round" stroke-linejoin="round" stroke-width="3" d="M70.052 161.581c6.742 0 12.207-5.465 12.207-12.206s-5.465-12.206-12.207-12.206c-6.743 0-12.208 5.465-12.208 12.206s5.465 12.206 12.208 12.206Z"/>
  <path fill="#F7CC47" stroke="#000" stroke-linejoin="round" stroke-width="3" d="M197.951 81.121h-23.17v13.95h23.17V81.12Z"/>
  <path stroke="#000" stroke-linejoin="round" stroke-width="3" d="M188.203 80.996v13.95"/>
  <path stroke="#000" stroke-linecap="round" stroke-linejoin="round" stroke-width="3" d="m171.852 71.032 8.501 9.871m1.686-9.435v9.528m-13.398 6.757h5.325"/>
  <path fill="#F7CC47" stroke="#000" stroke-linejoin="round" stroke-width="3" d="M2 30.242h27.25v-16.41H2v16.41Z"/>
  <path stroke="#000" stroke-linejoin="round" stroke-width="3" d="M13.46 13.708v16.41"/>
  <path stroke="#000" stroke-linecap="round" stroke-linejoin="round" stroke-width="3" d="M32.676 2 22.68 13.583M20.719 2.498v11.21m15.721 7.94h-6.26"/>
</svg>
