<svg xmlns="http://www.w3.org/2000/svg" width="153" height="67" fill="none" viewBox="0 0 153 67">
  <path fill="#F9FBFC" d="M23.558 30.054c.053-1.842.391-5.42 2.588-9.04 3.654-6.056 10.773-9.444 17.595-8.957 4.806.339 8.333 2.52 10.181 3.896 1.405-1.8 3.834-4.404 7.594-6.31 8.143-4.128 16.19-1.757 18.145-1.111 1.647-1.81 5.302-5.336 11.11-7.241 2.387-.784 9.77-2.816 17.955.74 8.533 3.695 12.061 10.894 12.853 12.641.106.074.275.201.475.35 7.752 5.62 14.079 5.832 18.335 7.611 7.583 3.165 13.825 13.519 12.41 22.274-1.585 9.792-12.283 14.64-15.188 15.964-11.829 5.357-23.14 1.43-25.918.37-1.668 1.334-7.91 6.003-17.035 5.749-8.058-.222-13.561-4.15-15.367-5.568a15.28 15.28 0 0 1-8.143 1.672 15.29 15.29 0 0 1-7.403-2.593c-3.39 1.926-11.27 5.812-21.958 5.642-11.49-.18-19.686-4.954-22.929-7.082-.602.264-7.245 3.091-13.222-.73-1.3-.837-4.204-3.028-5.26-6.787-2.186-7.844 5.83-14.969 6.907-15.932 6.337-5.632 14.068-5.632 16.275-5.547v-.011Z"/>
  <path fill="#D6E1E5" d="M122.439 43.149c-2.172-4.274-7.319-3.105-10.736-1.19-.433.242-.955-.252-.684-.685 1.608-2.661 3.237-6.42 1.468-9.414-1.428-2.42-4.222-3.588-6.926-3.78-7.087-.494-13.53 3.669-16.285 10.17-.14.333-.724.323-.864 0-1.458-3.296-3.961-7.156-8.002-7.267-3.9-.111-7.127 2.238-9.811 4.848-.332.323-.825.07-.855-.353-.271-3.487-.904-8.577-4.252-10.613-2.352-1.431-5.157-.948-7.489.282-5.85 3.104-10.102 9.212-11.902 15.502-.13.443-.894.524-.965 0-.341-2.308-1.216-6.32-3.98-6.894-2.966-.615-4.675 2.761-5.65 4.999-.11.242-.472.313-.683.181-4.051-2.56-10.023-3.517-11.49 2.39a10.263 10.263 0 0 0 .15 5.543c2.232.05 4.484-.162 6.686.302a.75.75 0 0 1 .482.06c.13.061 9.972 4.395 18.014 4.89 4.895.302 8.966-.837 11.52-1.553a43.082 43.082 0 0 0 6.282-2.298c.131.151.332.353.593.584 1.96 1.734 4.353 1.926 5.419 1.996 1.618.111 4.03.272 5.358-1.3a3.41 3.41 0 0 0 .633-1.14 11.445 11.445 0 0 0 2.794 2.712c3.368 2.268 7.067 1.976 10.686 1.633 2.734-.252 7.057-1.008 11.982-3.457a.84.84 0 0 1 .945-.605c5.388.786 10.967 1.22 16.335.353 1.588-1.522 2.443-3.568 1.257-5.907l-.03.01Z"/>
</svg>
